<svg width="20" height="20" viewBox="0 0 20 20" fill="none" xmlns="http://www.w3.org/2000/svg">
<path d="M2.20001 9.2H3.1061M3.1061 9.2H16.8939M3.1061 9.2C3.11574 9.1554 3.12715 9.11118 3.14031 9.0675C3.17173 8.96325 3.21611 8.863 3.30535 8.66221L4.64544 5.64701C4.9104 5.05086 5.04309 4.75262 5.2525 4.53405C5.4376 4.34085 5.66463 4.19327 5.91635 4.10259C6.20113 4 6.52759 4 7.17996 4H12.8198C13.4721 4 13.7989 4 14.0837 4.10259C14.3354 4.19327 14.5621 4.34085 14.7472 4.53405C14.9565 4.75247 15.0889 5.05047 15.3535 5.6458L16.699 8.67318C16.785 8.86668 16.8288 8.96516 16.8596 9.0675C16.8728 9.11118 16.8842 9.1554 16.8939 9.2M3.1061 9.2C3.09529 9.24995 3.0867 9.30038 3.0803 9.35107C3.06668 9.4591 3.06668 9.56892 3.06668 9.78864V14.4M16.8939 9.2H17.8M16.8939 9.2C16.9048 9.24995 16.9134 9.30038 16.9198 9.35107C16.9333 9.45844 16.9333 9.56762 16.9333 9.78469V14.4001M16.9333 14.4001L13.4667 14.4001M16.9333 14.4001V15.2666C16.9333 16.2239 16.1573 17 15.2 17C14.2427 17 13.4667 16.224 13.4667 15.2667V14.4001M13.4667 14.4001L6.53335 14.4M6.53335 14.4H3.06668M6.53335 14.4V15.2667C6.53335 16.224 5.75731 17 4.80001 17C3.84272 17 3.06668 16.224 3.06668 15.2667V14.4" stroke="black" stroke-width="1.3" stroke-linecap="round" stroke-linejoin="round"/>
</svg>
