<svg width="24" height="24" viewBox="0 0 24 24" fill="none" xmlns="http://www.w3.org/2000/svg">
<path fill-rule="evenodd" clip-rule="evenodd" d="M16.373 6.05918C16.2481 6.01419 16.0829 5.99999 15.2536 5.99999H8.74609C7.91685 5.99999 7.7519 6.01419 7.62701 6.05918C7.48186 6.11147 7.35102 6.19649 7.24418 6.30802C7.15228 6.40393 7.0721 6.54908 6.73546 7.30652L5.53836 9.99999H18.461L17.2633 7.30514C16.927 6.54836 16.8471 6.40371 16.7555 6.30802C16.6483 6.19616 16.5177 6.11131 16.373 6.05918ZM19 12V16.0001L5 16V12H19ZM3 12C2.44772 12 2 11.5523 2 11C2 10.4477 2.44772 9.99999 3 9.99999H3.34972C3.35365 9.99116 3.35761 9.98227 3.36158 9.97333L4.90784 6.49424C4.92551 6.45448 4.94298 6.41502 4.96031 6.3759C5.21239 5.80666 5.43384 5.30659 5.80002 4.92439C6.12033 4.59007 6.51341 4.33453 6.94916 4.17755C7.44684 3.99826 7.99358 3.99902 8.61529 3.99987C8.65853 3.99993 8.70213 3.99999 8.74609 3.99999H15.2536C15.2975 3.99999 15.3411 3.99993 15.3844 3.99987C16.0061 3.99902 16.5532 3.99826 17.0509 4.17755C17.4871 4.33469 17.8796 4.59041 18.1996 4.92439C18.5654 5.30619 18.7866 5.80575 19.038 6.37346C19.0555 6.41294 19.0731 6.45274 19.0909 6.49286L20.6434 9.98597C20.6455 9.99066 20.6476 9.99533 20.6497 9.99999H21C21.5523 9.99999 22 10.4477 22 11C22 11.5523 21.5523 12 21 12V17.9999C21 19.6567 19.6569 21 18 21C16.3432 21 15 19.6569 15 18.0001L9 18C9 19.6568 7.65685 21 6 21C4.34315 21 3 19.6568 3 18V12ZM7 18H5C5 18.5523 5.44772 19 6 19C6.55228 19 7 18.5523 7 18ZM17 18.0001C17 18.5523 17.4477 19 18 19C18.5521 19 18.9999 18.5524 19 18.0001L17 18.0001Z" fill="black"/>
</svg>
