<svg width="30" height="30" viewBox="0 0 30 30" fill="none" xmlns="http://www.w3.org/2000/svg">
<g clip-path="url(#clip0_112_35)">
<path d="M4.82273 9.66012L5.32273 9.37145V8.7941V5.32273H9.09801H9.67536L9.96404 4.82273L11.5888 2.00863L14.3321 3.59252L14.8321 3.8812L15.3321 3.59252L18.4091 1.81604L20.145 4.82273L20.4337 5.32273H21.011H24.4827V8.87562V9.45298L24.9827 9.74165L28.1818 11.5886L26.4052 14.6658L26.1165 15.1658L26.4052 15.6658L27.9891 18.4091L24.9827 20.1448L24.4827 20.4335V21.0108V24.4827H21.3147H20.7374L20.4487 24.9827L18.6018 28.1817L15.3321 26.2939L14.8321 26.0053L14.3321 26.2939L11.396 27.9891L9.66032 24.9827L9.37164 24.4827H8.79429H5.32273V21.0924V20.515L4.82273 20.2263L2.00875 18.6017L3.70381 15.6658L3.99249 15.1658L3.70381 14.6658L1.81604 11.396L4.82273 9.66012Z" stroke="black" stroke-width="2"/>
<line x1="9.59418" y1="19.9897" x2="19.7142" y2="9.86971" stroke="black" stroke-width="1.5"/>
<path d="M13.33 12.24C13.33 13.4839 12.5138 14.25 11.78 14.25C11.0462 14.25 10.23 13.4839 10.23 12.24C10.23 10.9961 11.0462 10.23 11.78 10.23C12.5138 10.23 13.33 10.9961 13.33 12.24Z" stroke="black" stroke-width="1.5"/>
<path d="M19.7704 17.76C19.7704 19.004 18.9542 19.77 18.2204 19.77C17.4866 19.77 16.6704 19.004 16.6704 17.76C16.6704 16.5161 17.4866 15.75 18.2204 15.75C18.9542 15.75 19.7704 16.5161 19.7704 17.76Z" stroke="black" stroke-width="1.5"/>
</g>
<defs>
<clipPath id="clip0_112_35">
<rect width="30" height="30" fill="white"/>
</clipPath>
</defs>
</svg>
