<svg width="18" height="18" viewBox="0 0 18 18" fill="none" xmlns="http://www.w3.org/2000/svg">
<path d="M9.97893 14.8599V16.4001C9.97893 16.6489 9.88009 16.8876 9.70425 17.0634C9.52827 17.2394 9.28971 17.3379 9.04093 17.3379C8.79215 17.3379 8.55359 17.2394 8.37775 17.0634C8.20177 16.8876 8.10293 16.6489 8.10293 16.4001V14.8182C7.48175 14.7162 6.88703 14.4916 6.35349 14.1576C5.81985 13.8234 5.35806 13.3863 4.99497 12.8719C4.86273 12.7041 4.78901 12.4977 4.78497 12.2841C4.78485 12.1628 4.80932 12.0426 4.85695 11.931C4.90458 11.8196 4.97437 11.7188 5.06208 11.635C5.14977 11.5513 5.25357 11.4861 5.36716 11.4437C5.48077 11.4011 5.60183 11.3822 5.72297 11.3879C5.84321 11.3872 5.96208 11.4133 6.07103 11.4641C6.17999 11.5149 6.27621 11.5897 6.35293 11.6822C6.80079 12.2673 7.40867 12.7097 8.10293 12.9561V9.40008C6.24093 8.67208 5.30297 7.57994 5.30297 6.16594C5.33103 5.40896 5.62856 4.68688 6.14194 4.12987C6.65533 3.57285 7.35071 3.21764 8.10293 3.12805V1.58791C8.10293 1.33915 8.20177 1.10074 8.37775 0.92483C8.55359 0.74892 8.79215 0.650024 9.04093 0.650024C9.28971 0.650024 9.52827 0.74892 9.70425 0.92483C9.88009 1.10074 9.97893 1.33915 9.97893 1.58791V3.11404C10.4999 3.19567 10.9991 3.38152 11.4466 3.66057C11.894 3.93962 12.2805 4.306 12.5829 4.73791C12.7164 4.89537 12.795 5.09214 12.8069 5.29808C12.8107 5.41806 12.7903 5.53748 12.747 5.64948C12.7036 5.76148 12.6382 5.86368 12.5547 5.94992C12.4711 6.03616 12.371 6.10448 12.2604 6.15124C12.1499 6.198 12.0311 6.22208 11.9109 6.22194C11.7855 6.22124 11.6617 6.19352 11.5482 6.14032C11.4347 6.08712 11.3339 6.00984 11.2529 5.91408C10.9192 5.49702 10.479 5.17796 9.97893 4.99022V8.14022L10.3289 8.27994C12.1069 8.97994 13.2129 9.98808 13.2129 11.5841C13.1922 12.4392 12.846 13.2541 12.2451 13.8629C11.6442 14.4716 10.8338 14.828 9.97893 14.8599ZM8.10293 7.32808V5.04594C7.87697 5.12784 7.68251 5.27876 7.54685 5.47728C7.41133 5.67566 7.34133 5.9117 7.34693 6.15194C7.34455 6.4003 7.41497 6.64404 7.54923 6.85292C7.68363 7.06194 7.87599 7.22714 8.10293 7.32808ZM11.1689 11.6261C11.1689 10.9541 10.7069 10.5481 9.97893 10.2261V13.0261C10.3128 12.9755 10.6171 12.8059 10.8357 12.5487C11.0544 12.2914 11.1729 11.9638 11.1689 11.6261Z" fill="black"/>
</svg>
