<svg width="30" height="30" viewBox="0 0 30 30" fill="none" xmlns="http://www.w3.org/2000/svg">
<path d="M14.7122 29.348C13.0122 29.348 11.3915 29.0873 9.85017 28.566C8.30884 28.0447 6.92617 27.2513 5.70217 26.186C4.50084 25.1207 3.54884 23.7833 2.84617 22.174C2.16617 20.5647 1.82617 18.6833 1.82617 16.53C1.82617 14.15 2.22284 11.9967 3.01617 10.07C3.83217 8.12066 4.94284 6.45466 6.34817 5.072C7.77617 3.66666 9.40817 2.60133 11.2442 1.876C13.1028 1.128 15.0748 0.753998 17.1602 0.753998C19.6082 0.753998 21.7275 1.27533 23.5182 2.318C25.3315 3.338 26.7255 4.75467 27.7002 6.568C28.6975 8.38133 29.1962 10.478 29.1962 12.858C29.1962 14.422 28.9582 15.7933 28.4822 16.972C28.0288 18.1507 27.4282 19.1367 26.6802 19.93C25.9322 20.7007 25.0935 21.2787 24.1642 21.664C23.2575 22.0493 22.3622 22.242 21.4782 22.242C20.4808 22.242 19.6195 22.0153 18.8942 21.562C18.1688 21.1087 17.7155 20.4627 17.5342 19.624H17.4662C17.0128 20.3267 16.3895 20.8933 15.5962 21.324C14.8028 21.732 14.0548 21.936 13.3522 21.936C12.0148 21.936 10.9268 21.4713 10.0882 20.542C9.24951 19.59 8.83017 18.332 8.83017 16.768C8.83017 15.7253 9.00017 14.7053 9.34017 13.708C9.70284 12.7107 10.2015 11.8153 10.8362 11.022C11.4708 10.2287 12.2075 9.594 13.0462 9.118C13.8848 8.642 14.7915 8.404 15.7662 8.404C16.3328 8.404 16.8315 8.54 17.2622 8.812C17.6928 9.06133 18.0555 9.492 18.3502 10.104H18.4182L18.8942 8.676H21.9882L20.4242 16.19C20.2202 17.1873 20.2428 17.924 20.4922 18.4C20.7415 18.8533 21.2288 19.08 21.9542 19.08C22.6342 19.08 23.2688 18.8307 23.8582 18.332C24.4475 17.8333 24.9235 17.1307 25.2862 16.224C25.6715 15.2947 25.8642 14.218 25.8642 12.994C25.8642 11.8153 25.6942 10.682 25.3542 9.594C25.0142 8.506 24.4815 7.54266 23.7562 6.704C23.0308 5.86533 22.0902 5.208 20.9342 4.732C19.7782 4.23333 18.3842 3.984 16.7522 3.984C15.3242 3.984 13.9302 4.27866 12.5702 4.868C11.2102 5.43466 9.98617 6.262 8.89817 7.35C7.83284 8.438 6.97151 9.75266 6.31417 11.294C5.67951 12.8127 5.36217 14.5127 5.36217 16.394C5.36217 18.026 5.62284 19.454 6.14417 20.678C6.66551 21.902 7.37951 22.9107 8.28617 23.704C9.19284 24.52 10.2355 25.1207 11.4142 25.506C12.5928 25.914 13.8282 26.118 15.1202 26.118C15.9815 26.118 16.8655 25.9933 17.7722 25.744C18.7015 25.5173 19.5175 25.234 20.2202 24.894L21.3762 27.716C20.3335 28.26 19.2682 28.668 18.1802 28.94C17.0922 29.212 15.9362 29.348 14.7122 29.348ZM14.4402 18.706C14.8028 18.706 15.1655 18.5927 15.5282 18.366C15.8908 18.1393 16.2762 17.7427 16.6842 17.176L17.5002 12.62C17.3415 12.3027 17.1262 12.0647 16.8542 11.906C16.5822 11.7473 16.2762 11.668 15.9362 11.668C15.2788 11.668 14.7008 11.9287 14.2022 12.45C13.7262 12.9713 13.3635 13.606 13.1142 14.354C12.8648 15.0793 12.7402 15.782 12.7402 16.462C12.7402 17.21 12.8875 17.7767 13.1822 18.162C13.4995 18.5247 13.9188 18.706 14.4402 18.706Z" fill="black"/>
</svg>
