<svg width="16" height="16" viewBox="0 0 16 16" fill="none" xmlns="http://www.w3.org/2000/svg">
<path fill-rule="evenodd" clip-rule="evenodd" d="M3.40627 1.86586C4.62577 0.670463 6.27839 0 8.0001 0C9.72181 0 11.3743 0.670368 12.5938 1.86577C13.8135 3.06143 14.5 4.68473 14.5 6.37859C14.5 8.57637 13.5323 10.5456 12.4045 12.0997C11.2735 13.6582 9.94425 14.8511 9.13298 15.5094C9.12015 15.5198 9.10725 15.5304 9.09425 15.541C8.90474 15.6955 8.69561 15.8661 8.3973 15.9493C8.15514 16.0169 7.84468 16.0169 7.60252 15.9493C7.30479 15.8662 7.09473 15.6949 6.90674 15.5415C6.89346 15.5307 6.88029 15.5199 6.86721 15.5093C6.05593 14.8509 4.72663 13.6581 3.5956 12.0995C2.46773 10.5453 1.5 8.57601 1.5 6.37822C1.5 4.6843 2.18655 3.06148 3.40627 1.86586ZM8.0001 1.24272C6.60652 1.24272 5.2713 1.78553 4.28796 2.74944C3.30484 3.71313 2.75384 5.01841 2.75384 6.37822C2.75384 8.21507 3.5667 9.93137 4.6135 11.3739C5.65712 12.812 6.89655 13.927 7.66154 14.5478C7.78241 14.6459 7.842 14.6935 7.89007 14.7255C7.92237 14.7471 7.93356 14.7507 7.94074 14.7527C7.9408 14.7527 7.94065 14.7527 7.94074 14.7527C7.94201 14.7529 7.94679 14.7539 7.95482 14.7548C7.96708 14.7563 7.98264 14.7573 7.99991 14.7573C8.01717 14.7573 8.03274 14.7563 8.045 14.7548C8.05354 14.7538 8.05815 14.7529 8.05905 14.7527C8.06696 14.7505 8.07808 14.7469 8.11016 14.7255C8.15795 14.6937 8.21746 14.6463 8.33864 14.5479C9.10364 13.9271 10.343 12.8122 11.3866 11.3741C12.4333 9.93169 13.2462 8.21545 13.2462 6.37859C13.2462 5.01872 12.6951 3.713 11.7121 2.74935C10.7287 1.78544 9.39369 1.24272 8.0001 1.24272ZM5.69508 5.6108C5.69508 4.3491 6.72704 3.32629 8.00003 3.32629C9.27302 3.32629 10.305 4.3491 10.305 5.6108C10.305 6.8725 9.27302 7.89531 8.00003 7.89531C6.72704 7.89531 5.69508 6.8725 5.69508 5.6108ZM8.00003 4.56901C7.41952 4.56901 6.94892 5.03544 6.94892 5.6108C6.94892 6.18616 7.41952 6.65259 8.00003 6.65259C8.58055 6.65259 9.05115 6.18616 9.05115 5.6108C9.05115 5.03544 8.58055 4.56901 8.00003 4.56901Z" fill="black"/>
</svg>
