<svg width="30" height="30" viewBox="0 0 30 30" fill="none" xmlns="http://www.w3.org/2000/svg">
<path d="M15.2856 12.4545V17.8763H22.974C22.6364 19.62 21.6233 21.0964 20.1038 22.0891L24.7402 25.6146C27.4415 23.171 29 19.5819 29 15.3183C29 14.3256 28.9091 13.3709 28.7402 12.4547L15.2856 12.4545Z" fill="black"/>
<path d="M7.27944 17.6647L6.23376 18.4491L2.53236 21.2745C4.88303 25.8436 9.70091 29 15.2853 29C19.1424 29 22.3765 27.7527 24.7402 25.6146L20.1038 22.0891C18.8311 22.9291 17.2074 23.4382 15.2853 23.4382C11.571 23.4382 8.41525 20.9819 7.28528 17.6728L7.27944 17.6647Z" fill="black"/>
<path d="M2.53237 8.72546C1.55839 10.609 1 12.7345 1 14.9999C1 17.2653 1.55838 19.391 2.53236 21.2745C2.53236 21.2872 7.28575 17.6598 7.28575 17.6598C7.00004 16.8198 6.83116 15.929 6.83116 14.9998C6.83116 14.0706 7.00004 13.1797 7.28575 12.3397L2.53237 8.72546Z" fill="black"/>
<path d="M15.2856 6.57454C17.3896 6.57454 19.2597 7.28725 20.7532 8.66181L24.8441 4.65277C22.3636 2.38736 19.1429 1 15.2856 1C9.7012 1 4.88304 4.14363 2.53237 8.72546L7.28575 12.3397C8.41557 9.03059 11.5713 6.57454 15.2856 6.57454Z" fill="black"/>
</svg>
