<svg width="30" height="30" viewBox="0 0 30 30" fill="none" xmlns="http://www.w3.org/2000/svg">
<path fill-rule="evenodd" clip-rule="evenodd" d="M18.8629 3.18114C20.3914 3.69998 21.4369 5.37451 21.0971 6.98651L20.4775 10.9525C20.4539 11.1261 20.5049 11.2218 20.5499 11.2729C20.6023 11.3322 20.6878 11.3776 20.8001 11.3776H25.8001C26.9756 11.3776 28.0345 11.8336 28.6838 12.6969C29.3418 13.5719 29.4725 14.7244 29.0575 15.8815C28.9071 16.3009 28.7576 16.8137 28.5829 17.423C28.5699 17.4685 28.5568 17.5145 28.5434 17.5609C28.3816 18.1257 28.201 18.7561 27.9895 19.4144C27.5316 20.8392 26.9155 22.439 25.9679 23.9404C25.1035 25.31 23.9674 26.5651 21.9501 26.5651H10.0865L10.0865 24.6901H21.9501C22.9765 24.6901 23.6221 24.1441 24.3823 22.9397C25.2098 21.6286 25.7685 20.1971 26.2044 18.8407C26.4064 18.2122 26.5791 17.6092 26.742 17.0406C26.7549 16.9956 26.7678 16.9509 26.7805 16.9062C26.9519 16.3085 27.118 15.7355 27.2926 15.2486C27.5276 14.5932 27.4085 14.1207 27.1851 13.8239C26.9531 13.5152 26.4995 13.2526 25.8001 13.2526H20.8001C19.4959 13.2526 18.414 12.1383 18.622 10.6825L18.6238 10.6703L19.2534 6.64083L19.2599 6.61168C19.3983 5.98916 18.9561 5.18863 18.2536 4.95444L18.2371 4.94896L18.2209 4.94287C17.9671 4.84772 17.6338 4.84991 17.2924 4.96727C16.9446 5.08679 16.6938 5.28968 16.5801 5.46009L16.5781 5.46303L11.4532 13.088L9.89701 12.0421L15.02 4.42003L15.0211 4.41844C15.4076 3.83967 16.0311 3.41812 16.6829 3.19411C17.3366 2.96937 18.1214 2.90828 18.8629 3.18114Z" fill="black"/>
<path fill-rule="evenodd" clip-rule="evenodd" d="M9.5 12.768H5C4.72386 12.768 4.5 12.9918 4.5 13.268V24.568C4.5 24.8441 4.72386 25.068 5 25.068H10V13.268C10 12.9918 9.77614 12.768 9.5 12.768ZM5 11.268C3.89543 11.268 3 12.1634 3 13.268V24.568C3 25.6726 3.89543 26.568 5 26.568H11.5V13.268C11.5 12.1634 10.6046 11.268 9.5 11.268H5Z" fill="black"/>
</svg>
