<svg width="30" height="30" viewBox="0 0 30 30" fill="none" xmlns="http://www.w3.org/2000/svg">
<path d="M10 23.75L12.8625 26.6125C13.1425 26.8945 13.4755 27.1182 13.8424 27.271C14.2092 27.4236 14.6026 27.5023 15 27.5023C15.3974 27.5023 15.7907 27.4236 16.1576 27.271C16.5245 27.1182 16.8575 26.8945 17.1375 26.6125L20 23.75H22.5C23.8261 23.75 25.0979 23.2233 26.0355 22.2856C26.9732 21.3479 27.5 20.0761 27.5 18.75V10C27.5 8.67391 26.9732 7.40222 26.0355 6.46454C25.0979 5.52686 23.8261 5 22.5 5H7.5C6.17391 5 4.90215 5.52686 3.96446 6.46454C3.02677 7.40222 2.5 8.67391 2.5 10V18.75C2.5 20.0761 3.02677 21.3479 3.96446 22.2856C4.90215 23.2233 6.17391 23.75 7.5 23.75H10Z" stroke="black" stroke-width="2" stroke-linecap="round" stroke-linejoin="round"/>
<path d="M21.25 12.5H8.75" stroke="black" stroke-width="2" stroke-linecap="round" stroke-linejoin="round"/>
<path d="M16.25 16.25H8.75" stroke="black" stroke-width="2" stroke-linecap="round" stroke-linejoin="round"/>
</svg>
