<svg width="28" height="28" viewBox="0 0 28 28" fill="none" xmlns="http://www.w3.org/2000/svg">
<path fill-rule="evenodd" clip-rule="evenodd" d="M22.9853 4.6807C23.0944 4.77566 23.157 4.91322 23.157 5.05786V10.0934C23.157 10.3429 22.9731 10.5542 22.726 10.5886L8.56707 12.562C8.4238 12.582 8.27891 12.5389 8.1698 12.4439C8.06069 12.349 7.99805 12.2114 7.99805 12.0668V7.03125C7.99805 6.78177 8.18194 6.57047 8.42903 6.53603L22.588 4.56265C22.7313 4.54268 22.8762 4.58574 22.9853 4.6807ZM8.99805 7.46639V11.4923L22.157 9.65825V5.63238L8.99805 7.46639Z" fill="black"/>
<path fill-rule="evenodd" clip-rule="evenodd" d="M22.6582 9.59327C22.9343 9.59327 23.1582 9.81712 23.1582 10.0933V19.8184C23.1582 20.0946 22.9343 20.3184 22.6582 20.3184C22.3821 20.3184 22.1582 20.0946 22.1582 19.8184V10.0933C22.1582 9.81712 22.3821 9.59327 22.6582 9.59327Z" fill="black"/>
<path fill-rule="evenodd" clip-rule="evenodd" d="M8.49805 11.5664C8.77419 11.5664 8.99805 11.7903 8.99805 12.0664V23.9067C8.99805 24.1829 8.77419 24.4067 8.49805 24.4067C8.2219 24.4067 7.99805 24.1829 7.99805 23.9067V12.0668C7.99805 11.7906 8.2219 11.5664 8.49805 11.5664Z" fill="black"/>
<path fill-rule="evenodd" clip-rule="evenodd" d="M5.24923 21.1406C3.73334 21.1406 2.5 22.3766 2.5 23.9068C2.5 25.4371 3.73334 26.6731 5.24923 26.6731C6.76513 26.6731 7.99805 25.437 7.99805 23.9067C7.99805 22.3765 6.76513 21.1406 5.24923 21.1406ZM1.5 23.9068C1.5 21.8293 3.17612 20.1406 5.24923 20.1406C7.32234 20.1406 8.99805 21.8291 8.99805 23.9067C8.99805 25.9843 7.32234 27.6731 5.24923 27.6731C3.17612 27.6731 1.5 25.9844 1.5 23.9068Z" fill="black"/>
<path fill-rule="evenodd" clip-rule="evenodd" d="M19.4084 17.0521C17.8925 17.0521 16.6592 18.2882 16.6592 19.8184C16.6592 21.3487 17.8925 22.5847 19.4084 22.5847C20.9243 22.5847 22.1582 21.3487 22.1582 19.8184C22.1582 18.2882 20.9243 17.0521 19.4084 17.0521ZM15.6592 19.8184C15.6592 17.7408 17.3353 16.0521 19.4084 16.0521C21.4815 16.0521 23.1582 17.7408 23.1582 19.8184C23.1582 21.896 21.4815 23.5847 19.4084 23.5847C17.3353 23.5847 15.6592 21.896 15.6592 19.8184Z" fill="black"/>
</svg>
