<svg width="24" height="24" viewBox="0 0 24 24" fill="none" xmlns="http://www.w3.org/2000/svg">
<path d="M13.5116 4.03606C13.5116 2.92029 12.5878 2 11.4391 2C10.319 2 9.42294 2.92029 9.42294 4.03606C9.42294 5.17951 10.319 6.07212 11.4391 6.07212C12.5869 6.07212 13.5116 5.17951 13.5116 4.03606ZM11.2993 22H9.47939C9.47939 22 9.39516 16.8398 9.53584 16.2257C9.64785 15.6115 10.8522 14.3288 10.9077 13.8263C10.9642 13.2961 10.4319 11.1208 10.4319 11.1208C10.4319 11.1208 9.2276 12.2089 8.83602 12.4044C8.44444 12.5998 5.3638 13.1015 5.3638 13.1015L5 11.5394C5 11.5394 7.93996 10.8976 8.36022 10.5629C8.78047 10.2558 9.90054 7.5503 10.7401 7.21557C11.3002 6.96474 12.8127 7.07632 13.5681 7.07632C14.3522 7.07632 16.9283 8.55449 17.1801 8.88923C17.4606 9.19629 19 12.2089 19 12.2089L17.5995 12.9899L16.4794 10.5906C16.4794 10.5906 15.6111 9.86486 15.2751 9.75328C14.9113 9.6417 14.4346 9.50246 14.3513 9.80952C14.2392 10.0889 14.9955 12.3758 15.1918 13.0176C15.3602 13.687 16.284 16.7273 16.6201 17.3691C16.9561 18.0109 18.9444 20.8557 18.9444 20.8557L17.2366 21.9714C17.2366 21.9714 14.8002 18.6795 14.4919 18.2055C14.1559 17.7315 13.2034 15.1929 13.2034 15.1929C13.2034 15.1929 11.5789 17.1736 11.4391 17.7868C11.3271 18.3447 11.2993 22 11.2993 22Z" fill="black"/>
</svg>
