<svg width="20" height="28" viewBox="0 0 20 28" fill="none" xmlns="http://www.w3.org/2000/svg">
<path d="M11.9435 3.64688C11.9435 2.19638 10.7558 1 9.2788 1C7.83871 1 6.68664 2.19638 6.68664 3.64688C6.68664 5.13336 7.83871 6.29376 9.2788 6.29376C10.7546 6.29376 11.9435 5.13336 11.9435 3.64688ZM9.09908 27H6.75922C6.75922 27 6.65092 20.2917 6.8318 19.4934C6.97581 18.695 8.52419 17.0275 8.59562 16.3742C8.6682 15.6849 7.98387 12.857 7.98387 12.857C7.98387 12.857 6.43548 14.2715 5.93203 14.5257C5.42857 14.7798 1.46774 15.4319 1.46774 15.4319L1 13.4012C1 13.4012 4.77995 12.5669 5.32028 12.1318C5.8606 11.7326 7.30069 8.21539 8.38018 7.78024C9.10023 7.45416 11.0449 7.59921 12.0161 7.59921C13.0242 7.59921 16.3364 9.52084 16.6601 9.95599C17.0207 10.3552 19 14.2715 19 14.2715L17.1993 15.2869L15.7592 12.1677C15.7592 12.1677 14.6429 11.2243 14.2108 11.0793C13.7431 10.9342 13.1302 10.7532 13.023 11.1524C12.879 11.5156 13.8514 14.4885 14.1037 15.3229C14.3203 16.1932 15.5081 20.1455 15.9401 20.9798C16.3721 21.8142 18.9286 25.5124 18.9286 25.5124L16.7327 26.9629C16.7327 26.9629 13.6002 22.6833 13.2039 22.0671C12.7719 21.451 11.5472 18.1508 11.5472 18.1508C11.5472 18.1508 9.45853 20.7257 9.2788 21.5229C9.13479 22.2481 9.09908 27 9.09908 27Z" fill="black"/>
</svg>
