<svg width="16" height="16" viewBox="0 0 16 16" fill="none" xmlns="http://www.w3.org/2000/svg">
<path fill-rule="evenodd" clip-rule="evenodd" d="M2.92477 2.14286C2.49283 2.14286 2.14283 2.49289 2.14283 2.92467C2.14283 8.96243 7.03743 13.8571 13.075 13.8571C13.5068 13.8571 13.8568 13.5071 13.8568 13.0751L13.8572 11.11V11.11C13.8571 10.7595 13.6439 10.4444 13.3185 10.3143V10.3143L11.4354 9.56126C11.143 9.44431 10.8103 9.49692 10.5686 9.69826V9.69826L10.0826 10.1036C9.2881 10.7657 8.11892 10.7133 7.38736 9.98177L6.01884 8.61196C5.28782 7.88093 5.23331 6.71262 5.89586 5.91753L6.30113 5.43154C6.50286 5.18934 6.55577 4.85633 6.43913 4.56458V4.56458L5.68543 2.68181C5.55527 2.35639 5.24004 2.14286 4.88956 2.14286H2.92477ZM1 2.92467C1 1.86154 1.86183 1 2.92477 1H4.88956C5.70735 1 6.44275 1.4979 6.74647 2.25722L7.5001 4.13984C7.77311 4.82238 7.64902 5.59922 7.17907 6.16318L6.77381 6.64917V6.64917C6.4905 6.9893 6.51312 7.49002 6.82694 7.80384L8.19546 9.17365C8.50874 9.48675 9.00996 9.50966 9.3506 9.22594V9.22594L9.83661 8.82059C10.4011 8.35021 11.1779 8.22735 11.8598 8.50012L13.7428 9.25308C14.5022 9.55682 15 10.2922 15 11.11L14.9997 13.0751V13.0751C14.9996 14.138 14.1381 15 13.075 15C6.40627 15 1 9.59361 1 2.92467Z" fill="black"/>
</svg>
