<svg width="28" height="28" viewBox="0 0 28 28" fill="none" xmlns="http://www.w3.org/2000/svg">
<path d="M8.081 19.62C7.435 19.62 6.81733 19.501 6.228 19.263C5.65 19.0137 5.174 18.6737 4.8 18.243L5.463 17.376C5.81433 17.7047 6.20533 17.971 6.636 18.175C7.078 18.3677 7.55967 18.464 8.081 18.464C8.70433 18.464 9.17467 18.294 9.492 17.954C9.80933 17.614 9.968 17.1663 9.968 16.611C9.968 16.2143 9.85467 15.8743 9.628 15.591C9.40133 15.3077 9.10667 15.0583 8.744 14.843C8.38133 14.6163 7.996 14.3953 7.588 14.18C7.19133 13.9533 6.81167 13.7097 6.449 13.449C6.08633 13.1883 5.79167 12.8823 5.565 12.531C5.33833 12.1797 5.225 11.749 5.225 11.239C5.225 10.6723 5.34967 10.1737 5.599 9.743C5.85967 9.31233 6.21667 8.978 6.67 8.74C7.13467 8.49066 7.66733 8.366 8.268 8.366C8.92533 8.366 9.48067 8.49066 9.934 8.74C10.3987 8.98933 10.7953 9.31233 11.124 9.709L10.376 10.474C10.1153 10.168 9.815 9.93566 9.475 9.777C9.14633 9.61833 8.74967 9.539 8.285 9.539C7.775 9.539 7.367 9.692 7.061 9.998C6.755 10.2927 6.602 10.6837 6.602 11.171C6.602 11.5337 6.71533 11.8453 6.942 12.106C7.16867 12.3667 7.46333 12.6047 7.826 12.82C8.18867 13.024 8.56833 13.2337 8.965 13.449C9.373 13.6643 9.75833 13.908 10.121 14.18C10.4837 14.4407 10.7783 14.758 11.005 15.132C11.2317 15.506 11.345 15.965 11.345 16.509C11.345 17.1323 11.209 17.6763 10.937 18.141C10.665 18.6057 10.2853 18.9683 9.798 19.229C9.31067 19.4897 8.73833 19.62 8.081 19.62ZM7.69 21.286V19.127H8.71V21.286H7.69ZM7.69 8.893V6.7H8.71V8.893H7.69Z" fill="black"/>
<path d="M19.9345 19.62C19.2885 19.62 18.6708 19.501 18.0815 19.263C17.5035 19.0137 17.0275 18.6737 16.6535 18.243L17.3165 17.376C17.6678 17.7047 18.0588 17.971 18.4895 18.175C18.9315 18.3677 19.4132 18.464 19.9345 18.464C20.5578 18.464 21.0282 18.294 21.3455 17.954C21.6628 17.614 21.8215 17.1663 21.8215 16.611C21.8215 16.2143 21.7082 15.8743 21.4815 15.591C21.2548 15.3077 20.9602 15.0583 20.5975 14.843C20.2348 14.6163 19.8495 14.3953 19.4415 14.18C19.0448 13.9533 18.6652 13.7097 18.3025 13.449C17.9398 13.1883 17.6452 12.8823 17.4185 12.531C17.1918 12.1797 17.0785 11.749 17.0785 11.239C17.0785 10.6723 17.2032 10.1737 17.4525 9.743C17.7132 9.31233 18.0702 8.978 18.5235 8.74C18.9882 8.49066 19.5208 8.366 20.1215 8.366C20.7788 8.366 21.3342 8.49066 21.7875 8.74C22.2522 8.98933 22.6488 9.31233 22.9775 9.709L22.2295 10.474C21.9688 10.168 21.6685 9.93566 21.3285 9.777C20.9998 9.61833 20.6032 9.539 20.1385 9.539C19.6285 9.539 19.2205 9.692 18.9145 9.998C18.6085 10.2927 18.4555 10.6837 18.4555 11.171C18.4555 11.5337 18.5688 11.8453 18.7955 12.106C19.0222 12.3667 19.3168 12.6047 19.6795 12.82C20.0422 13.024 20.4218 13.2337 20.8185 13.449C21.2265 13.6643 21.6118 13.908 21.9745 14.18C22.3372 14.4407 22.6318 14.758 22.8585 15.132C23.0852 15.506 23.1985 15.965 23.1985 16.509C23.1985 17.1323 23.0625 17.6763 22.7905 18.141C22.5185 18.6057 22.1388 18.9683 21.6515 19.229C21.1642 19.4897 20.5918 19.62 19.9345 19.62ZM19.5435 21.286V19.127H20.5635V21.286H19.5435ZM19.5435 8.893V6.7H20.5635V8.893H19.5435Z" fill="black"/>
</svg>
