<svg width="30" height="30" viewBox="0 0 30 30" fill="none" xmlns="http://www.w3.org/2000/svg">
<rect width="30" height="30" fill="white"/>
<path fill-rule="evenodd" clip-rule="evenodd" d="M3.99667 6.6676C3.99667 5.16376 5.20999 3.9409 6.71136 3.9409H8.42591C8.66264 3.9409 8.85455 4.13281 8.85455 4.36954V4.94405C8.85455 5.81998 9.56032 6.52622 10.4262 6.52622C11.2921 6.52622 11.9979 5.81998 11.9979 4.94405V4.36954C11.9979 4.13281 12.1898 3.9409 12.4265 3.9409H16.9986C17.2354 3.9409 17.4273 4.13281 17.4273 4.36954V4.94405C17.4273 5.81998 18.133 6.52622 18.9989 6.52622C19.8648 6.52622 20.5706 5.81998 20.5706 4.94405V4.36954C20.5706 4.13281 20.7625 3.9409 20.9992 3.9409H23.2853C24.7867 3.9409 26 5.16377 26 6.6676V23.3286C26 24.8323 24.7867 26.0553 23.2853 26.0553H6.71136C5.20999 26.0553 3.99667 24.8323 3.99667 23.3286V6.6676ZM6.71136 4.79818C5.68766 4.79818 4.85394 5.633 4.85394 6.6676V23.3286C4.85394 24.3631 5.68767 25.198 6.71136 25.198H23.2853C24.309 25.198 25.1427 24.3631 25.1427 23.3286V6.6676C25.1427 5.63299 24.3091 4.79818 23.2853 4.79818H21.4279V4.94405C21.4279 6.2892 20.3425 7.3835 18.9989 7.3835C17.6554 7.3835 16.57 6.2892 16.57 4.94405V4.79818H12.8552V4.94405C12.8552 6.2892 11.7698 7.3835 10.4262 7.3835C9.08263 7.3835 7.99727 6.2892 7.99727 4.94405V4.79818H6.71136Z" fill="black"/>
</svg>
