<svg width="30" height="30" viewBox="0 0 30 30" fill="none" xmlns="http://www.w3.org/2000/svg">
    <path fill-rule="evenodd" clip-rule="evenodd" d="M15 30C23.2843 30 30 23.2843 30 15C30 6.71573 23.2843 0 15 0C6.71573 0 0 6.71573 0 15C0 23.2843 6.71573 30 15 30ZM15.495 7.50503C15.3637 7.37375 15.1857 7.3 15 7.3C14.8143 7.3 14.6363 7.37375 14.505 7.50503L9.50502 12.505C9.23166 12.7784 9.23166 13.2216 9.50502 13.495C9.77839 13.7683 10.2216 13.7683 10.495 13.495L14.3 9.68995V22C14.3 22.3866 14.6134 22.7 15 22.7C15.3866 22.7 15.7 22.3866 15.7 22V9.68995L19.505 13.495C19.7784 13.7683 20.2216 13.7683 20.495 13.495C20.7683 13.2216 20.7683 12.7784 20.495 12.505L15.495 7.50503Z" fill="black"/>
</svg>
