<svg width="28" height="28" viewBox="0 0 28 28" fill="none" xmlns="http://www.w3.org/2000/svg">
<path d="M23.5426 9.43392V22.2309C23.2516 23.1019 22.9512 23.6957 22.6414 24.0125C22.3317 24.3292 21.8005 24.5857 21.048 24.7818H19.1308L14.0795 20.7685L8.57153 24.7818H6.1922C5.49038 24.4754 5.01759 24.1804 4.77381 23.8967C4.53002 23.613 4.27209 23.0577 4 22.2309L4.05347 16.7634C4.72445 15.7033 5.30271 15.0841 5.78825 14.9058C6.27378 14.7275 7.12134 14.8231 8.33092 15.1926L10.5139 17.9613" stroke="black" stroke-width="1.3" stroke-linecap="square"/>
<path fill-rule="evenodd" clip-rule="evenodd" d="M17.3944 1H10.7643C10.7468 2.33607 10.8293 3.2106 11.0117 3.62359C11.1941 4.03658 11.6556 4.39362 12.3963 4.69472V15.4138C11.5612 17.0495 10.6697 18.305 9.7217 19.1806C8.82365 20.3302 8.44046 21.6198 8.57213 23.0493C8.80821 24.0506 9.04952 24.7811 9.29608 25.2408C9.54264 25.7005 10.0321 26.3324 10.7643 27.1365H17.4025C18.1171 26.3606 18.5982 25.7437 18.846 25.2856C19.0938 24.8275 19.3496 24.0821 19.6133 23.0493C19.5067 21.2753 19.0193 19.9858 18.1511 19.1806C17.2828 18.3754 16.3979 17.1198 15.4963 15.4138V4.69472C16.2285 4.43135 16.7195 4.05656 16.9693 3.57035C17.219 3.08414 17.3608 2.22735 17.3944 1Z" stroke="black" stroke-width="1.3" stroke-linecap="square"/>
<path fill-rule="evenodd" clip-rule="evenodd" d="M8.57129 7.77238H19.5857C18.9868 9.32175 18.3719 10.2868 17.7411 10.6675C17.1102 11.0482 15.9161 11.1749 14.1587 11.0475C12.2688 11.1714 11.0174 11.0448 10.4046 10.6675C9.79173 10.2902 9.18064 9.32518 8.57129 7.77238Z" fill="white" stroke="black" stroke-width="1.3" stroke-linecap="square"/>
</svg>
