<svg width="32" height="32" viewBox="0 0 32 32" fill="none" xmlns="http://www.w3.org/2000/svg">
<path d="M2.66498 11H29.3316M2.66498 11V25.667C2.66498 27.5338 2.66498 28.4668 3.02829 29.1798C3.34787 29.807 3.85743 30.3175 4.48464 30.637C5.19698 31 6.12997 31 7.99316 31H24.0035C25.8667 31 26.7983 31 27.5106 30.637C28.1378 30.3175 28.6491 29.807 28.9687 29.1798C29.3316 28.4675 29.3316 27.5358 29.3316 25.6726V11M2.66498 11V9.66699C2.66498 7.80015 2.66498 6.86603 3.02829 6.15299C3.34787 5.52579 3.85743 5.01622 4.48464 4.69665C5.19768 4.33333 6.1318 4.33333 7.99864 4.33333H9.33165M29.3316 11V9.66152C29.3316 7.79832 29.3316 6.86534 28.9687 6.15299C28.6491 5.52579 28.1378 5.01622 27.5106 4.69665C26.7976 4.33333 25.8655 4.33333 23.9986 4.33333H22.665M22.665 1V4.33333M22.665 4.33333H9.33165M9.33165 1V4.33333" stroke="black" stroke-width="2" stroke-linecap="round" stroke-linejoin="round"/>
</svg>
