<svg width="28" height="28" viewBox="0 0 28 28" fill="none" xmlns="http://www.w3.org/2000/svg">
<g clip-path="url(#clip0_18_4)">
<rect width="28" height="28" fill="white"/>
<path d="M16.1094 2.85125C16.1094 1.28875 14.8494 0 13.2825 0C11.7548 0 10.5326 1.28875 10.5326 2.85125C10.5326 4.4525 11.7548 5.7025 13.2825 5.7025C14.8481 5.7025 16.1094 4.4525 16.1094 2.85125ZM13.0919 28.0075H10.6096C10.6096 28.0075 10.4948 20.7813 10.6866 19.9213C10.8394 19.0613 12.482 17.265 12.5578 16.5613C12.6348 15.8188 11.9088 12.7725 11.9088 12.7725C11.9088 12.7725 10.2662 14.2963 9.73213 14.57C9.19804 14.8438 4.9962 15.5463 4.9962 15.5463L4.5 13.3588C4.5 13.3588 8.50995 12.46 9.08315 11.9913C9.65635 11.5613 11.1841 7.7725 12.3292 7.30375C13.0931 6.9525 15.1561 7.10875 16.1864 7.10875C17.2558 7.10875 20.7696 9.17875 21.113 9.6475C21.4955 10.0775 23.5952 14.2963 23.5952 14.2963L21.685 15.39L20.1573 12.03C20.1573 12.03 18.973 11.0138 18.5147 10.8575C18.0185 10.7013 17.3683 10.5063 17.2546 10.9363C17.1018 11.3275 18.1333 14.53 18.401 15.4288C18.6308 16.3663 19.8908 20.6238 20.3491 21.5225C20.8075 22.4213 23.5195 26.405 23.5195 26.405L21.19 27.9675C21.19 27.9675 17.8669 23.3575 17.4465 22.6938C16.9882 22.03 15.689 18.475 15.689 18.475C15.689 18.475 13.4732 21.2488 13.2825 22.1075C13.1298 22.8888 13.0919 28.0075 13.0919 28.0075Z" fill="#676767"/>
</g>
<defs>
<clipPath id="clip0_18_4">
<rect width="28" height="28" fill="white"/>
</clipPath>
</defs>
</svg>
