<svg width="30" height="30" viewBox="0 0 30 30" fill="none" xmlns="http://www.w3.org/2000/svg">
<path fill-rule="evenodd" clip-rule="evenodd" d="M10.2484 5C10.2484 4.58579 10.5841 4.25 10.9984 4.25H18.9984C19.4126 4.25 19.7484 4.58579 19.7484 5C19.7484 5.41421 19.4126 5.75 18.9984 5.75H10.9984C10.5841 5.75 10.2484 5.41421 10.2484 5ZM4.91498 9C4.91498 8.58579 5.25076 8.25 5.66498 8.25H24.3317C24.7459 8.25 25.0817 8.58579 25.0817 9C25.0817 9.41421 24.7459 9.75 24.3317 9.75H23.0817V22.3333C23.0817 24.2203 21.552 25.75 19.665 25.75H10.3317C8.44472 25.75 6.91502 24.2204 6.91502 22.3333V9.75H5.66498C5.25076 9.75 4.91498 9.41421 4.91498 9ZM8.41502 9.75V22.3333C8.41502 23.3919 9.27313 24.25 10.3317 24.25H19.665C20.7236 24.25 21.5817 23.3919 21.5817 22.3333V9.75H8.41502ZM12.3316 12.9167C12.7459 12.9167 13.0816 13.2525 13.0816 13.6667V20.3333C13.0816 20.7475 12.7459 21.0833 12.3316 21.0833C11.9174 21.0833 11.5816 20.7475 11.5816 20.3333V13.6667C11.5816 13.2525 11.9174 12.9167 12.3316 12.9167ZM17.665 12.9167C18.0792 12.9167 18.415 13.2525 18.415 13.6667V20.3333C18.415 20.7475 18.0792 21.0833 17.665 21.0833C17.2508 21.0833 16.915 20.7475 16.915 20.3333V13.6667C16.915 13.2525 17.2508 12.9167 17.665 12.9167Z" fill="black"/>
</svg>
