<svg width="20" height="20" viewBox="0 0 20 20" fill="none" xmlns="http://www.w3.org/2000/svg">
<path d="M2 7H18M2 7V15.8002C2 16.9203 2 17.4801 2.21799 17.9079C2.40973 18.2842 2.71547 18.5905 3.0918 18.7822C3.5192 19 4.07899 19 5.19691 19H14.8031C15.921 19 16.48 19 16.9074 18.7822C17.2837 18.5905 17.5905 18.2842 17.7822 17.9079C18 17.4805 18 16.9215 18 15.8036V7M2 7V6.2002C2 5.08009 2 4.51962 2.21799 4.0918C2.40973 3.71547 2.71547 3.40973 3.0918 3.21799C3.51962 3 4.08009 3 5.2002 3H6M18 7V6.19691C18 5.07899 18 4.5192 17.7822 4.0918C17.5905 3.71547 17.2837 3.40973 16.9074 3.21799C16.4796 3 15.9203 3 14.8002 3H14M14 1V3M14 3H6M6 1V3" stroke="#3D3D3D" stroke-linecap="round" stroke-linejoin="round"/>
<path d="M6 12.0955L9 15.0955L13.9562 10" stroke="#8A8A8A" stroke-width="3" stroke-linecap="square"/>
</svg>
