<svg width="44" height="28" viewBox="0 0 44 28" fill="none" xmlns="http://www.w3.org/2000/svg">
<path d="M38.036 18.8175C38.036 20.4157 36.736 21.7111 35.132 21.7111C33.5283 21.7111 32.228 20.4157 32.228 18.8175C32.228 17.2196 33.5282 15.9239 35.132 15.9239C36.7359 15.9239 38.036 17.2195 38.036 18.8175ZM10.1039 18.8175C10.1039 20.4157 8.80391 21.7111 7.19993 21.7111C5.59595 21.7111 4.29593 20.4157 4.29593 18.8175C4.29593 17.2196 5.59595 15.9239 7.19993 15.9239C8.80391 15.9239 10.1039 17.2195 10.1039 18.8175Z" fill="black"/>
<path d="M43.4089 14.9046C43.2401 13.9319 43.1522 12.686 43.1559 12.4641C43.1559 12.4641 42.0176 12.4715 41.3401 12.2536C40.6624 12.0366 35.579 10.2099 33.3175 9.81316C31.0559 9.41638 25.1781 8.35101 20.1004 9.56033C16.9816 10.3034 11.9927 12.9268 11.9927 12.9268C11.9927 12.9268 5.66347 13.3665 2.82975 14.7359C-0.00378847 16.1053 0.411339 16.125 0.338495 16.2923C0.265222 16.4595 0.27335 16.7073 0.21175 16.8812C0.150394 17.0549 0 17.3743 0 17.6812C0 17.988 0.337333 18.336 0.338067 18.4806C0.3388 18.6253 0.253733 18.5691 0.253733 18.6912C0.253733 18.8132 0.514922 18.9454 0.506794 19.1961C0.495794 19.5519 0.0845164 19.7361 0.0845164 19.869C0.0845164 20.0027 0.300849 20.1935 0.464322 20.2474C0.628527 20.3015 1.64859 20.4886 3.20907 20.5419C3.20907 20.5419 3.0954 20.7027 3.54707 20.7101C3.5764 20.7108 3.63446 20.7108 3.71488 20.7115C3.58288 20.3374 3.50435 19.8705 3.50435 19.364C3.50435 19.1376 3.52061 18.9183 3.54897 18.7123C3.60458 16.7395 5.22616 15.1568 7.21991 15.1568C9.02244 15.1568 10.5206 16.4509 10.8331 18.1571C10.9527 18.6701 11.0207 19.2605 11.0207 19.8896C11.0207 20.1725 11.0069 20.4465 10.9811 20.7103H11.0208L31.4582 20.7943H31.5168C31.3966 20.3105 31.3314 19.7948 31.3314 19.2584C31.3314 18.9749 31.3498 18.7396 31.3842 18.5431C31.525 16.6032 33.1484 15.0723 35.1315 15.0723C35.1711 15.0723 35.21 15.0737 35.2496 15.0751C35.2804 15.0744 35.312 15.0723 35.3428 15.0723C37.4181 15.0723 39.1011 17.0788 39.1011 19.5531C39.1011 19.9988 39.0461 20.4284 38.9442 20.8347L39.1856 20.8361C39.1856 20.8361 43.147 19.8241 43.4082 19.5743C43.6701 19.3245 44 18.0196 44 17.1346C44 16.249 43.6502 16.2958 43.4089 14.9046Z" fill="black"/>
</svg>
