<svg width="28" height="28" viewBox="0 0 28 28" fill="none" xmlns="http://www.w3.org/2000/svg">
<path fill-rule="evenodd" clip-rule="evenodd" d="M9.06502 23.7416H17.9715V24.8416H9.06502V23.7416Z" fill="black"/>
<path fill-rule="evenodd" clip-rule="evenodd" d="M4.74 10.6626H22.2965L13.5182 18.3751L4.74 10.6626ZM7.39327 11.6626L13.5182 17.0439L19.6432 11.6626H7.39327Z" fill="black"/>
<path fill-rule="evenodd" clip-rule="evenodd" d="M14.0182 17.4045V24.4368H13.0182V17.4045H14.0182Z" fill="black"/>
<path fill-rule="evenodd" clip-rule="evenodd" d="M18.8171 7.44271L16.1736 11.8486L15.3161 11.3341L17.9597 6.92821L18.8171 7.44271Z" fill="black"/>
<path fill-rule="evenodd" clip-rule="evenodd" d="M13.4526 3.66885C13.8167 3.46256 14.2594 3.38 14.744 3.38C15.6866 3.38 17.2645 3.6976 19.4281 4.29344L19.5436 4.32524L19.6321 4.4059C20.4876 5.18533 21.1795 5.84708 21.7052 6.38969C22.2236 6.92485 22.6037 7.36759 22.8136 7.70472C23.0353 8.06059 23.1589 8.44316 23.1589 8.84567C23.1589 9.24704 23.036 9.63347 22.8191 9.9986L22.5743 10.4108L12.5627 5.01991L12.6863 4.6258C12.8166 4.21086 13.0749 3.88281 13.4526 3.66885ZM13.8699 4.58805L22.1394 9.04083C22.1528 8.97325 22.1589 8.90827 22.1589 8.84567C22.1589 8.65677 22.1028 8.45494 21.9648 8.23337C21.8151 7.99308 21.4998 7.61484 20.9869 7.08549C20.4991 6.58189 19.8533 5.96245 19.0472 5.22587C16.9389 4.64953 15.5201 4.38 14.744 4.38C14.3622 4.38 14.1083 4.4467 13.9455 4.53891C13.9187 4.5541 13.8935 4.57043 13.8699 4.58805Z" fill="black"/>
</svg>
