<svg width="24" height="24" viewBox="0 0 24 24" fill="none" xmlns="http://www.w3.org/2000/svg">
<path d="M22.13 12.005C22.1301 11.4552 22.085 10.9063 21.995 10.3639L18.755 9.208L20.2316 6.09878C19.5871 5.20629 18.8038 4.42291 17.9113 3.77846L14.8021 5.25503L13.6461 2.01503C12.5595 1.835 11.4506 1.835 10.3639 2.01503L9.208 5.25503L6.09878 3.77846C5.20629 4.42291 4.42291 5.20629 3.77846 6.09878L5.25503 9.208L2.01503 10.3639C1.835 11.4506 1.835 12.5595 2.01503 13.6461L5.25503 14.8021L3.77846 17.9113C4.42291 18.8038 5.20629 19.5871 6.09878 20.2316L9.208 18.755L10.3639 21.995C11.4506 22.1751 12.5595 22.1751 13.6461 21.995L14.8021 18.755L17.9113 20.2316C18.8038 19.5871 19.5871 18.8038 20.2316 17.9113L18.755 14.8021L21.995 13.6461C22.085 13.1037 22.1301 12.5548 22.13 12.005Z" stroke="black" stroke-width="1.2"/>
<path d="M12.005 13.6925C12.937 13.6925 13.6925 12.937 13.6925 12.005C13.6925 11.073 12.937 10.3175 12.005 10.3175C11.073 10.3175 10.3175 11.073 10.3175 12.005C10.3175 12.937 11.073 13.6925 12.005 13.6925Z" stroke="black" stroke-width="1.2"/>
</svg>
