<svg width="30" height="30" viewBox="0 0 30 30" fill="none" xmlns="http://www.w3.org/2000/svg">
<path d="M3.2708 14.9158L1.13302 11.213L4.57273 9.22711L4.82273 9.08277V8.7941V4.82273H9.09801H9.38669L9.53102 4.57273L11.4057 1.32562L14.5821 3.15951L14.8321 3.30385L15.0821 3.15951L18.5921 1.13302L20.578 4.57273L20.7223 4.82273H21.011H24.9827V8.87562V9.1643L25.2327 9.30864L28.8648 11.4056L26.8382 14.9158L26.6939 15.1658L26.8382 15.4158L28.6721 18.5921L25.2327 20.5778L24.9827 20.7222V21.0108V24.9827H21.3147H21.0261L20.8817 25.2327L18.7848 28.8647L15.0821 26.7269L14.8321 26.5826L14.5821 26.7269L11.213 28.6721L9.2273 25.2327L9.08297 24.9827H8.79429H4.82273V21.0924V20.8037L4.57273 20.6593L1.32574 18.7847L3.2708 15.4158L3.41513 15.1658L3.2708 14.9158Z" stroke="black"/>
<path fill-rule="evenodd" clip-rule="evenodd" d="M20.9688 10.688L10.6511 21.0056L9.75 20.1045L20.0677 9.78682L20.9688 10.688Z" fill="black"/>
<path fill-rule="evenodd" clip-rule="evenodd" d="M12.3393 14.1034C12.7228 14.1034 13.4098 13.6416 13.4098 12.5639C13.4098 11.4862 12.7228 11.0244 12.3393 11.0244C11.9558 11.0244 11.2688 11.4862 11.2688 12.5639C11.2688 13.6416 11.9558 14.1034 12.3393 14.1034ZM12.3393 15.3778C13.6344 15.3778 14.6842 14.118 14.6842 12.5639C14.6842 11.0098 13.6344 9.75 12.3393 9.75C11.0442 9.75 9.99438 11.0098 9.99438 12.5639C9.99438 14.118 11.0442 15.3778 12.3393 15.3778Z" fill="black"/>
<path fill-rule="evenodd" clip-rule="evenodd" d="M18.905 19.7312C19.2886 19.7312 19.9756 19.2694 19.9756 18.1917C19.9756 17.1141 19.2886 16.6522 18.905 16.6522C18.5215 16.6522 17.8345 17.1141 17.8345 18.1917C17.8345 19.2694 18.5215 19.7312 18.905 19.7312ZM18.905 21.0056C20.2001 21.0056 21.25 19.7458 21.25 18.1917C21.25 16.6376 20.2001 15.3778 18.905 15.3778C17.61 15.3778 16.5601 16.6376 16.5601 18.1917C16.5601 19.7458 17.61 21.0056 18.905 21.0056Z" fill="black"/>
</svg>
