<svg width="24" height="24" viewBox="0 0 24 24" fill="none" xmlns="http://www.w3.org/2000/svg">
<path fill-rule="evenodd" clip-rule="evenodd" d="M0.498291 8.82399L3.59646 7.03526V3.45816H7.41669L9.11646 0.514061L12.004 2.18117L15.1584 0.359985L16.9471 3.45816H20.5245V7.10047L23.7765 8.97806L21.9553 12.1326L23.6224 15.0201L20.5245 16.8086V20.3862H17.1901L15.3125 23.6381L12.004 21.7279L8.96229 23.4841L7.17371 20.3862H3.59646V16.8739L0.652463 15.1741L2.40851 12.1326L0.498291 8.82399Z" fill="black"/>
<path fill-rule="evenodd" clip-rule="evenodd" d="M16.6238 8.61015L8.52779 16.7061L7.82068 15.999L15.9167 7.90304L16.6238 8.61015Z" fill="white"/>
<path fill-rule="evenodd" clip-rule="evenodd" d="M9.85245 11.2901C10.1534 11.2901 10.6925 10.9278 10.6925 10.0821C10.6925 9.23653 10.1534 8.87415 9.85245 8.87415C9.5515 8.87415 9.01245 9.23653 9.01245 10.0821C9.01245 10.9278 9.5515 11.2901 9.85245 11.2901ZM9.85245 12.2901C10.8687 12.2901 11.6925 11.3016 11.6925 10.0821C11.6925 8.8627 10.8687 7.87415 9.85245 7.87415C8.83625 7.87415 8.01245 8.8627 8.01245 10.0821C8.01245 11.3016 8.83625 12.2901 9.85245 12.2901Z" fill="white"/>
<path fill-rule="evenodd" clip-rule="evenodd" d="M15.0044 15.7061C15.3054 15.7061 15.8444 15.3438 15.8444 14.4981C15.8444 13.6525 15.3054 13.2901 15.0044 13.2901C14.7035 13.2901 14.1644 13.6525 14.1644 14.4981C14.1644 15.3438 14.7035 15.7061 15.0044 15.7061ZM15.0044 16.7061C16.0206 16.7061 16.8444 15.7176 16.8444 14.4981C16.8444 13.2787 16.0206 12.2901 15.0044 12.2901C13.9882 12.2901 13.1644 13.2787 13.1644 14.4981C13.1644 15.7176 13.9882 16.7061 15.0044 16.7061Z" fill="white"/>
</svg>
