<svg width="28" height="28" viewBox="0 0 28 28" fill="none" xmlns="http://www.w3.org/2000/svg">
<path d="M14 3C9.582 3 6 6.60081 6 11.042C6 12.7908 6.57033 14.3955 7.51833 15.7097C7.53533 15.7412 7.538 15.7764 7.55733 15.8066L12.8907 23.8486C13.138 24.2215 13.5547 24.4453 14 24.4453C14.4453 24.4453 14.862 24.2215 15.1093 23.8486L20.4427 15.8066C20.4623 15.7764 20.4647 15.7412 20.4817 15.7097C21.4297 14.3955 22 12.7908 22 11.042C22 6.60081 18.418 3 14 3ZM14 13.7227C12.5273 13.7227 11.3333 12.5224 11.3333 11.042C11.3333 9.5616 12.5273 8.36133 14 8.36133C15.4727 8.36133 16.6667 9.5616 16.6667 11.042C16.6667 12.5224 15.4727 13.7227 14 13.7227Z" fill="white"/>
<path fill-rule="evenodd" clip-rule="evenodd" d="M8.36743 15.1775L8.39834 15.2348C8.41977 15.2745 8.4365 15.3112 8.44936 15.3423L13.7241 23.2959C13.7868 23.3904 13.8911 23.4453 14 23.4453C14.1089 23.4453 14.2132 23.3904 14.2759 23.2959L19.5507 15.3422C19.5636 15.311 19.5803 15.2744 19.6017 15.2348L19.6326 15.1775L19.6707 15.1247C20.5033 13.9705 21 12.5684 21 11.042C21 7.14815 17.8608 4 14 4C10.1392 4 7 7.14815 7 11.042C7 12.5684 7.49674 13.9705 8.32935 15.1247L8.36743 15.1775ZM19.5088 15.4599C19.5087 15.4602 19.5087 15.4602 19.5088 15.4599ZM8.49057 15.4576C8.49074 15.4581 8.49074 15.4581 8.49057 15.4576ZM7.55733 15.8066C7.54688 15.7902 7.5413 15.7725 7.53569 15.7546C7.53092 15.7394 7.52614 15.7242 7.51833 15.7097C6.57033 14.3955 6 12.7908 6 11.042C6 6.60081 9.582 3 14 3C18.418 3 22 6.60081 22 11.042C22 12.7908 21.4297 14.3955 20.4817 15.7097C20.4739 15.7241 20.4692 15.7392 20.4645 15.7542C20.4589 15.7722 20.4534 15.7901 20.4427 15.8066L15.1093 23.8486C14.862 24.2215 14.4453 24.4453 14 24.4453C13.5547 24.4453 13.138 24.2215 12.8907 23.8486L7.55733 15.8066ZM14 14.7227C11.9701 14.7227 10.3333 13.0697 10.3333 11.042C10.3333 9.01426 11.9701 7.36133 14 7.36133C16.0299 7.36133 17.6667 9.01426 17.6667 11.042C17.6667 13.0697 16.0299 14.7227 14 14.7227ZM11.3333 11.042C11.3333 12.5224 12.5273 13.7227 14 13.7227C15.4727 13.7227 16.6667 12.5224 16.6667 11.042C16.6667 9.5616 15.4727 8.36133 14 8.36133C12.5273 8.36133 11.3333 9.5616 11.3333 11.042Z" fill="black"/>
</svg>
