<svg width="24" height="24" viewBox="0 0 24 24" fill="none" xmlns="http://www.w3.org/2000/svg">
<path fill-rule="evenodd" clip-rule="evenodd" d="M0.849976 8.61553C0.849976 4.99478 3.64189 2 7.15745 2C9.14461 2 10.8673 3.10933 11.9999 4.58145C13.1326 3.10932 14.8553 2 16.8424 2C20.358 2 23.15 4.99477 23.15 8.61553C23.15 9.44519 22.9986 10.2347 22.7348 10.9628C21.7446 13.9557 19.1163 17.0199 16.8153 19.2903C15.6515 20.4386 14.5481 21.4062 13.7357 22.0868C13.3292 22.4273 12.9949 22.6965 12.7614 22.8812C12.6446 22.9735 12.5531 23.0448 12.4903 23.0933L12.418 23.1487L12.3989 23.1633L12.3923 23.1683C12.3923 23.1683 12.3916 23.1688 12 22.65C11.6084 23.1688 11.6082 23.1686 11.6082 23.1686L11.6063 23.1672L11.6011 23.1633L11.582 23.1487L11.5098 23.0933C11.4469 23.0448 11.3554 22.9735 11.2386 22.8812C11.0051 22.6965 10.6708 22.4273 10.2643 22.0868C9.4519 21.4062 8.34846 20.4386 7.18469 19.2903C4.88366 17.0199 2.25535 13.9557 1.2652 10.9628C1.00138 10.2347 0.849976 9.44523 0.849976 8.61553ZM12 22.65L11.6082 23.1686C11.8399 23.3435 12.1605 23.3432 12.3923 23.1683L12 22.65Z" fill="black"/>
</svg>
