<svg width="24" height="24" viewBox="0 0 24 24" fill="none" xmlns="http://www.w3.org/2000/svg">
<path fill-rule="evenodd" clip-rule="evenodd" d="M0.849976 8.61553C0.849976 4.99478 3.64189 2 7.15745 2C9.14461 2 10.8673 3.10933 11.9999 4.58145C13.1326 3.10932 14.8553 2 16.8424 2C20.358 2 23.15 4.99477 23.15 8.61553C23.15 9.44519 22.9986 10.2347 22.7348 10.9628C21.7446 13.9557 19.1163 17.0199 16.8153 19.2903C15.6515 20.4386 14.5481 21.4062 13.7357 22.0868C13.3292 22.4273 12.9949 22.6965 12.7614 22.8812C12.6446 22.9735 12.5531 23.0448 12.4903 23.0933L12.418 23.1487L12.3989 23.1633L12.3923 23.1683C12.3923 23.1683 12.3916 23.1688 12 22.65C11.6084 23.1688 11.6082 23.1686 11.6082 23.1686L11.6063 23.1672L11.6011 23.1633L11.582 23.1487L11.5098 23.0933C11.4469 23.0448 11.3554 22.9735 11.2386 22.8812C11.0051 22.6965 10.6708 22.4273 10.2643 22.0868C9.4519 21.4062 8.34846 20.4386 7.18469 19.2903C4.88366 17.0199 2.25535 13.9557 1.2652 10.9628C1.00138 10.2347 0.849976 9.44523 0.849976 8.61553ZM12 22.65L11.6082 23.1686C11.8399 23.3435 12.1605 23.3432 12.3923 23.1683L12 22.65ZM12 21.8258C12.2224 21.6493 12.5304 21.4005 12.9009 21.0902C13.6937 20.426 14.7697 19.4825 15.9022 18.365C18.1914 16.1062 20.6203 13.2243 21.5033 10.5463C21.5043 10.5433 21.5053 10.5403 21.5063 10.5373C21.5075 10.534 21.5086 10.5308 21.5098 10.5276C21.7268 9.93123 21.85 9.28864 21.85 8.61553C21.85 5.64695 19.576 3.3 16.8424 3.3C15.0818 3.3 13.4739 4.48295 12.5642 6.07337C12.4484 6.27576 12.2331 6.40064 12 6.40064C11.7668 6.40065 11.5515 6.27577 11.4357 6.07339C10.526 4.48294 8.91809 3.3 7.15745 3.3C4.42394 3.3 2.14998 5.64694 2.14998 8.61553C2.14998 9.2886 2.27314 9.93114 2.49022 10.5276C2.49248 10.5338 2.49465 10.5401 2.49673 10.5463C3.37968 13.2243 5.80859 16.1062 8.09776 18.365C9.23031 19.4825 10.3063 20.426 11.0991 21.0902C11.4696 21.4005 11.7776 21.6493 12 21.8258Z" fill="black"/>
</svg>
