<svg width="26" height="26" viewBox="0 0 26 26" fill="none" xmlns="http://www.w3.org/2000/svg">
<path d="M9.87808 3.32152C9.49842 2.37238 8.57915 1.75 7.55688 1.75H4.11842C2.81038 1.75 1.75 2.81012 1.75 4.11816C1.75 15.2365 10.7635 24.25 21.8818 24.25C23.1899 24.25 24.25 23.1895 24.25 21.8815L24.2506 18.4424C24.2506 17.4202 23.6284 16.5011 22.6792 16.1214L19.3837 14.8037C18.5311 14.4626 17.5604 14.6161 16.8549 15.204L16.0044 15.9133C15.0111 16.7411 13.5495 16.6753 12.6352 15.761L10.2403 13.3638C9.32598 12.4495 9.25842 10.9892 10.0862 9.99585L10.7954 9.14537C11.3833 8.43994 11.5381 7.46895 11.1971 6.61636L9.87808 3.32152Z" fill="white"/>
</svg>
