<svg width="26" height="26" viewBox="0 0 26 26" fill="none" xmlns="http://www.w3.org/2000/svg">
<path fill-rule="evenodd" clip-rule="evenodd" d="M11.8266 24.3366C9.31227 22.2778 3.63184 16.9082 3.63184 10.4149C3.63184 7.95764 4.61884 5.60144 6.37572 3.86387C8.13259 2.1263 10.5155 1.14999 13.0001 1.14999C15.4847 1.14999 17.8674 2.12615 19.6243 3.86372C21.3812 5.60129 22.3681 7.95824 22.3681 10.4155C22.3681 16.9088 16.688 22.278 14.1737 24.3368C13.8125 24.6325 13.6317 24.7801 13.3627 24.8559C13.1537 24.9147 12.846 24.9147 12.637 24.8559C12.3685 24.7803 12.1864 24.6312 11.8266 24.3366ZM13 11.8565C11.5218 11.8565 10.3234 10.6581 10.3234 9.17987C10.3234 7.70161 11.5218 6.50325 13 6.50325C14.4783 6.50325 15.6767 7.70161 15.6767 9.17987C15.6767 10.6581 14.4783 11.8565 13 11.8565Z" fill="white"/>
</svg>
