<svg width="20" height="20" viewBox="0 0 20 20" fill="none" xmlns="http://www.w3.org/2000/svg">
<path d="M11.2957 2.83246C11.2957 1.82826 10.5038 1 9.5192 1C8.55914 1 7.79109 1.82826 7.79109 2.83246C7.79109 3.86156 8.55914 4.66491 9.5192 4.66491C10.5031 4.66491 11.2957 3.86156 11.2957 2.83246ZM9.39939 19H7.83948C7.83948 19 7.76728 14.3558 7.88787 13.8031C7.98387 13.2504 9.01613 12.096 9.06375 11.6437C9.11214 11.1665 8.65591 9.20869 8.65591 9.20869C8.65591 9.20869 7.62366 10.188 7.28802 10.3639C6.95238 10.5399 4.31183 10.9913 4.31183 10.9913L4 9.58547C4 9.58547 6.51997 9.00786 6.88018 8.7066C7.2404 8.43024 8.20046 5.99527 8.92012 5.69401C9.40015 5.46827 10.6966 5.56869 11.3441 5.56869C12.0161 5.56869 14.2243 6.89904 14.4401 7.2003C14.6805 7.47666 16 10.188 16 10.188L14.7995 10.8909L13.8395 8.7315C13.8395 8.7315 13.0952 8.07837 12.8072 7.97795C12.4954 7.87753 12.0868 7.75221 12.0154 8.02856C11.9194 8.28001 12.5676 10.3382 12.7358 10.9158C12.8802 11.5183 13.672 14.2546 13.9601 14.8322C14.2481 15.4098 15.9524 17.9701 15.9524 17.9701L14.4885 18.9743C14.4885 18.9743 12.4002 16.0115 12.1359 15.5849C11.8479 15.1584 11.0315 12.8736 11.0315 12.8736C11.0315 12.8736 9.63902 14.6563 9.5192 15.2082C9.4232 15.7103 9.39939 19 9.39939 19Z" fill="black"/>
</svg>
