<svg width="28" height="28" viewBox="0 0 28 28" fill="none" xmlns="http://www.w3.org/2000/svg">
<path fill-rule="evenodd" clip-rule="evenodd" d="M19.7756 3.09589V26.1707H18.4999V18.1288C17.641 17.6593 16.538 16.2197 16.538 15.1685V5.82175C16.538 4.46908 17.5014 3.34338 18.7756 3.09914C18.7814 3.09804 18.7871 3.09696 18.7929 3.09589C18.9558 3.06575 19.1237 3.05 19.2953 3.05C19.4582 3.05 19.6204 3.06906 19.7756 3.09589ZM17.4999 18.656V27.1707H20.7756V2.25391L19.946 2.1105C19.7563 2.07771 19.5338 2.05 19.2953 2.05C17.2156 2.05 15.538 3.74293 15.538 5.82175V15.1685C15.538 15.9945 15.9469 16.822 16.3763 17.4383C16.6884 17.8863 17.0806 18.3221 17.4999 18.656Z" fill="black"/>
<path fill-rule="evenodd" clip-rule="evenodd" d="M12.5538 3.09596L13.2814 3.09525L13.7126 8.28716C13.7238 8.41636 13.7295 8.5498 13.7295 8.68323C13.7295 10.2287 12.9569 11.5941 11.7805 12.413L11.7862 26.1708H9.9742V12.4349C8.78378 11.6167 8 10.2407 8 8.68323C8 8.5265 8.00773 8.37118 8.02247 8.21868L8.46563 3.09525H9.19393V8.73971H9.83163V3.09596H10.5543V8.73971H11.1927V3.09596H11.9154V8.73971H12.5538V3.09596ZM14.2018 2.09525L14.709 8.20252C14.7227 8.36115 14.7295 8.52284 14.7295 8.68323C14.7295 10.3744 13.9706 11.8886 12.7807 12.9029L12.7866 27.1708H8.9742V12.9284C7.76967 11.9126 7 10.3872 7 8.68323C7 8.49554 7.00916 8.30986 7.02661 8.1277L7.5484 2.09525H14.2018Z" fill="black"/>
</svg>
