<svg width="16" height="16" viewBox="0 0 16 16" fill="none" xmlns="http://www.w3.org/2000/svg">
<path fill-rule="evenodd" clip-rule="evenodd" d="M3.75758 6.5641C2.93752 6.5641 2.27273 7.20698 2.27273 8C2.27273 8.79302 2.93752 9.4359 3.75758 9.4359C4.57763 9.4359 5.24242 8.79302 5.24242 8C5.24242 7.20698 4.57763 6.5641 3.75758 6.5641ZM1 8C1 6.52725 2.23461 5.33333 3.75758 5.33333C5.28054 5.33333 6.51515 6.52725 6.51515 8C6.51515 9.47275 5.28054 10.6667 3.75758 10.6667C2.23461 10.6667 1 9.47275 1 8Z" fill="black"/>
<path fill-rule="evenodd" clip-rule="evenodd" d="M10.6425 3.13428C10.8441 3.41271 10.7741 3.79642 10.4861 3.99132L6.24372 6.86312C5.9558 7.05802 5.559 6.9903 5.35746 6.71187C5.15591 6.43344 5.22594 6.04973 5.51386 5.85483L9.75628 2.98304C10.0442 2.78814 10.441 2.85585 10.6425 3.13428Z" fill="black"/>
<path fill-rule="evenodd" clip-rule="evenodd" d="M5.35746 9.28813C5.559 9.0097 5.9558 8.94198 6.24372 9.13688L10.4861 12.0087C10.7741 12.2036 10.8441 12.5873 10.6425 12.8657C10.441 13.1442 10.0442 13.2119 9.75628 13.017L5.51386 10.1452C5.22594 9.95027 5.15591 9.56656 5.35746 9.28813Z" fill="black"/>
<path fill-rule="evenodd" clip-rule="evenodd" d="M12.2424 11.8974C11.4224 11.8974 10.7576 12.5403 10.7576 13.3333C10.7576 14.1263 11.4224 14.7692 12.2424 14.7692C13.0625 14.7692 13.7273 14.1263 13.7273 13.3333C13.7273 12.5403 13.0625 11.8974 12.2424 11.8974ZM9.48485 13.3333C9.48485 11.8606 10.7195 10.6667 12.2424 10.6667C13.7654 10.6667 15 11.8606 15 13.3333C15 14.8061 13.7654 16 12.2424 16C10.7195 16 9.48485 14.8061 9.48485 13.3333Z" fill="black"/>
<path fill-rule="evenodd" clip-rule="evenodd" d="M12.2424 1.23077C11.4224 1.23077 10.7576 1.87365 10.7576 2.66667C10.7576 3.45969 11.4224 4.10256 12.2424 4.10256C13.0625 4.10256 13.7273 3.45969 13.7273 2.66667C13.7273 1.87365 13.0625 1.23077 12.2424 1.23077ZM9.48485 2.66667C9.48485 1.19391 10.7195 0 12.2424 0C13.7654 0 15 1.19391 15 2.66667C15 4.13943 13.7654 5.33333 12.2424 5.33333C10.7195 5.33333 9.48485 4.13943 9.48485 2.66667Z" fill="black"/>
</svg>
