<svg width="28" height="28" viewBox="0 0 28 28" fill="none" xmlns="http://www.w3.org/2000/svg">
<path fill-rule="evenodd" clip-rule="evenodd" d="M24.0434 8.97392V22.3522L24.0176 22.4293C23.723 23.3111 23.3939 23.999 22.9997 24.4021C22.5947 24.8161 21.9575 25.1017 21.1749 25.3056L21.1128 25.3218H18.9571L14.0672 21.4367L8.73516 25.3218H6.08859L5.99292 25.28C5.27968 24.9686 4.71707 24.6369 4.39538 24.2626C4.08087 23.8966 3.7983 23.2551 3.52584 22.4272L3.5 22.3486L3.55567 16.6562L3.63177 16.536C3.9768 15.9908 4.30785 15.5431 4.62576 15.2026C4.93818 14.8681 5.26788 14.6045 5.61667 14.4764C5.96503 14.3485 6.38805 14.3354 6.84489 14.3869C7.30998 14.4394 7.85623 14.5645 8.47778 14.7544L8.62745 14.8001L11.2169 18.0844L10.4316 18.7035L8.03687 15.6662C7.51572 15.5132 7.08253 15.4201 6.73281 15.3806C6.34209 15.3365 6.09857 15.3648 5.96139 15.4151C5.82464 15.4654 5.62245 15.6005 5.35661 15.8852C5.11667 16.1421 4.84853 16.495 4.55282 16.9519L4.50158 22.1924C4.76225 22.9699 4.98626 23.4158 5.1538 23.6108C5.31196 23.7948 5.66751 24.0383 6.29871 24.3218H8.40948L14.0934 20.1803L19.306 24.3218H20.9836C21.6691 24.1368 22.0763 23.9161 22.2847 23.7029C22.5033 23.4794 22.7655 23.0023 23.0434 22.1887V8.97392H24.0434Z" fill="black"/>
<path fill-rule="evenodd" clip-rule="evenodd" d="M10.2716 0.539993H17.9091L17.895 1.05369C17.8612 2.28504 17.7207 3.24329 17.4148 3.83882C17.1333 4.38671 16.6377 4.78792 15.997 5.0728V15.3292C16.8659 16.9555 17.7002 18.1198 18.4919 18.854C19.4924 19.7819 20.0027 21.22 20.1132 23.0593L20.1179 23.1373L20.0985 23.213C19.8329 24.2532 19.5651 25.0486 19.2866 25.5635C19.0079 26.0788 18.4912 26.7333 17.7711 27.5152L17.6226 27.6765H10.5442L10.3954 27.5131C9.65861 26.704 9.13362 26.0342 8.85624 25.5171C8.57772 24.9978 8.32463 24.215 8.08626 23.204L8.07823 23.1699L8.07502 23.1351C7.93146 21.5765 8.35341 20.1609 9.32845 18.9128L9.35343 18.8808L9.38325 18.8532C10.254 18.0491 11.0949 16.8832 11.897 15.3329V5.06097C11.2697 4.76265 10.7816 4.37846 10.5551 3.8656C10.4303 3.58292 10.3585 3.19506 10.316 2.74488C10.2725 2.28323 10.2563 1.71117 10.2652 1.03345L10.2716 0.539993ZM11.2634 1.53999C11.2666 1.97698 11.2829 2.34668 11.3116 2.651C11.3516 3.07535 11.4123 3.33125 11.4699 3.46156C11.5719 3.69253 11.8801 3.9848 12.5854 4.27153L12.897 4.39824V15.5741L12.8424 15.6812C11.9996 17.3319 11.0861 18.6324 10.0925 19.5593C9.29589 20.593 8.95821 21.7352 9.06775 23.0091C9.2987 23.9819 9.52539 24.649 9.73749 25.0444C9.93826 25.4188 10.3453 25.9592 10.9873 26.6765H17.1827C17.8067 25.9865 18.2056 25.4601 18.407 25.0877C18.6186 24.6965 18.8556 24.0255 19.1101 23.0417C18.9982 21.3761 18.5366 20.2593 17.8119 19.5872C16.8846 18.7272 15.9685 17.4159 15.055 15.6875L14.997 15.5778V4.3832L15.3278 4.26422C15.9912 4.02559 16.3539 3.71544 16.5253 3.38186C16.6902 3.06087 16.8183 2.46537 16.8734 1.53999H11.2634Z" fill="black"/>
<path fill-rule="evenodd" clip-rule="evenodd" d="M8.57207 7.81238H19.5865C18.9876 9.36174 18.3727 10.3268 17.7419 10.7075C17.111 11.0882 15.9169 11.2149 14.1595 11.0875C12.2696 11.2114 11.0182 11.0847 10.4053 10.7075C9.79251 10.3302 9.18142 9.36518 8.57207 7.81238Z" fill="white"/>
<path fill-rule="evenodd" clip-rule="evenodd" d="M7.83874 7.31238H20.3159L20.0529 7.99266C19.7463 8.7857 19.4291 9.44702 19.0978 9.96685C18.7696 10.4819 18.4081 10.8894 18.0002 11.1356C17.5948 11.3802 17.0553 11.5185 16.4259 11.5852C15.7973 11.6519 15.0391 11.6512 14.1578 11.5887C13.2124 11.6494 12.4086 11.6493 11.7531 11.5829C11.1005 11.5168 10.5452 11.3808 10.1432 11.1333C9.74494 10.8881 9.38985 10.4813 9.06497 9.96825C8.73661 9.44971 8.41812 8.78882 8.10662 7.99503L7.83874 7.31238ZM9.32288 8.31238C9.52207 8.75771 9.71802 9.13035 9.90983 9.43326C10.196 9.88524 10.4529 10.1496 10.6675 10.2817C10.8782 10.4115 11.2551 10.5274 11.8539 10.588C12.4419 10.6475 13.1971 10.6496 14.1268 10.5886L14.1612 10.5864L14.1956 10.5889C15.0571 10.6513 15.763 10.6499 16.3204 10.5908C16.8851 10.5309 17.2581 10.4154 17.4835 10.2794C17.7064 10.1449 17.9678 9.87945 18.2545 9.4295C18.4469 9.12748 18.6421 8.75613 18.839 8.31238H9.32288Z" fill="black"/>
</svg>
