<svg width="24" height="24" viewBox="0 0 24 24" fill="none" xmlns="http://www.w3.org/2000/svg">
<path d="M2.33112 9.64292C2.01787 9.35324 2.18802 8.82955 2.61172 8.77931L8.6153 8.06722C8.78798 8.04674 8.93797 7.93831 9.0108 7.7804L11.543 2.29061C11.7217 1.90318 12.2725 1.9031 12.4512 2.29054L14.9835 7.78029C15.0563 7.93819 15.2053 8.04692 15.378 8.0674L21.3819 8.77931C21.8056 8.82955 21.9753 9.35339 21.662 9.64308L17.2239 13.7481C17.0963 13.8661 17.0394 14.0419 17.0733 14.2124L18.2512 20.1421C18.3343 20.5606 17.8889 20.8848 17.5166 20.6764L12.2413 17.7228C12.0896 17.6378 11.9052 17.6382 11.7535 17.7232L6.47759 20.6757C6.10529 20.8841 5.6591 20.5606 5.74225 20.1421L6.9203 14.2128C6.95419 14.0422 6.89749 13.8661 6.76982 13.748L2.33112 9.64292Z" stroke="black" stroke-width="2" stroke-linecap="round" stroke-linejoin="round"/>
</svg>
