<svg width="28" height="28" viewBox="0 0 28 28" fill="none" xmlns="http://www.w3.org/2000/svg">
<path fill-rule="evenodd" clip-rule="evenodd" d="M5.77762 22.7642V11.5183H4.77762V22.7802L4.77785 22.7878C4.79213 23.2592 4.99138 23.7064 5.33296 24.0315C5.67303 24.3551 6.12668 24.5314 6.59575 24.5217H20.2445V23.5217H6.59012L6.57788 23.5219C6.37224 23.5269 6.17249 23.45 6.02233 23.3071C5.87368 23.1656 5.78561 22.9708 5.77762 22.7642Z" fill="black"/>
<path fill-rule="evenodd" clip-rule="evenodd" d="M22.282 16.4352V11.593H23.282V16.4352H22.282Z" fill="black"/>
<path fill-rule="evenodd" clip-rule="evenodd" d="M11.0164 15.9836H17.0826V23.9909H16.0826V16.9836H12.0164V23.9909H11.0164V15.9836Z" fill="black"/>
<path fill-rule="evenodd" clip-rule="evenodd" d="M6.15262 2.76329L21.837 2.76329C22.0303 2.76337 22.2188 2.82333 22.3765 2.93465C22.5271 3.04092 22.6427 3.18897 22.7096 3.35991L24.7869 7.85185L24.7979 7.91906C24.8923 8.49499 24.8606 9.08468 24.7051 9.6471C24.5496 10.2095 24.274 10.7313 23.8972 11.176C23.5204 11.6208 23.0516 11.9778 22.5232 12.2221C21.9948 12.4663 21.4196 12.5919 20.8378 12.59L20.8301 12.59L20.8223 12.5897C20.3691 12.5741 19.9236 12.4681 19.5117 12.2778C19.2309 12.1482 18.9696 11.9812 18.7345 11.7818C17.9838 12.2401 17.1351 12.5172 16.2555 12.5884L16.2169 12.5915L16.1783 12.5887C15.3805 12.5297 14.6282 12.2149 14.0282 11.6985C13.7675 11.9238 13.4766 12.1127 13.1631 12.2591C12.6886 12.4807 12.1732 12.6002 11.6499 12.6098C11.1266 12.6193 10.6072 12.5188 10.125 12.3146C9.79171 12.1735 9.48137 11.9851 9.20314 11.7559C8.88341 11.9996 8.52464 12.1891 8.14098 12.3156C7.60324 12.4928 7.03165 12.5412 6.4719 12.4569L6.46492 12.4558C5.54975 12.3047 4.86657 11.9484 4.36838 11.4772C3.87359 11.0092 3.5857 10.4513 3.42021 9.93021C3.25523 9.41066 3.20814 8.91647 3.20101 8.55596C3.19743 8.37454 3.20391 8.22382 3.21153 8.11657C3.21535 8.06286 3.21947 8.01981 3.2228 7.98899C3.22447 7.97357 3.22594 7.96119 3.22709 7.95205L3.22854 7.94078L3.22905 7.937L3.22924 7.93558C3.22924 7.93558 3.2294 7.93449 3.7245 8.0043L3.2294 7.93449L3.23943 7.86335L5.27922 3.36203C5.34598 3.19019 5.4619 3.04136 5.61309 2.93465C5.77081 2.82333 5.95934 2.76337 6.15262 2.76329ZM4.21297 8.13774C4.21169 8.15213 4.21034 8.16875 4.20901 8.18746C4.20322 8.26897 4.19791 8.38914 4.20082 8.53619C4.20668 8.83263 4.24572 9.22573 4.37332 9.62756C4.50041 10.0278 4.71154 10.4254 5.05552 10.7507C5.39555 11.0723 5.88983 11.3467 6.62427 11.4686C7.02794 11.5288 7.44005 11.4937 7.82796 11.3658C8.21697 11.2376 8.571 11.0197 8.86171 10.7292L9.227 10.3642L9.58003 10.7411C9.84312 11.0219 10.1616 11.2442 10.5149 11.3938C10.8681 11.5433 11.2485 11.6169 11.6316 11.6099C12.0147 11.6029 12.3922 11.5155 12.7399 11.3531C13.0875 11.1907 13.3978 10.9569 13.6505 10.6666L14.0272 10.234L14.4044 10.6662C14.8677 11.1971 15.5162 11.5269 16.214 11.5883C17.0374 11.5146 17.8269 11.2213 18.5006 10.7381L18.8612 10.4795L19.1608 10.8069C19.378 11.0442 19.6398 11.2355 19.9309 11.37C20.2197 11.5033 20.5317 11.5781 20.849 11.59C21.282 11.5903 21.71 11.4963 22.1036 11.3144C22.4995 11.1313 22.8513 10.8636 23.1342 10.5296C23.4171 10.1957 23.6243 9.8036 23.7413 9.3806C23.8524 8.97867 23.8795 8.55814 23.821 8.14556L21.7944 3.76343L6.19527 3.76329L4.21297 8.13774Z" fill="black"/>
<path fill-rule="evenodd" clip-rule="evenodd" d="M24.3264 8.5043H3.7245V7.5043H24.3264V8.5043Z" fill="black"/>
<path fill-rule="evenodd" clip-rule="evenodd" d="M9.737 3.26329V8.0043H8.737V3.26329H9.737Z" fill="black"/>
<path fill-rule="evenodd" clip-rule="evenodd" d="M14.5495 3.26329V8.0043H13.5495V3.26329H14.5495Z" fill="black"/>
<path fill-rule="evenodd" clip-rule="evenodd" d="M19.3489 3.26329V8.0043H18.3489V3.26329H19.3489Z" fill="black"/>
<path fill-rule="evenodd" clip-rule="evenodd" d="M22.782 16.9352C20.741 16.9352 19.082 18.5992 19.082 20.6573C19.082 22.7154 20.741 24.3793 22.782 24.3793C24.823 24.3793 26.482 22.7154 26.482 20.6573C26.482 18.5992 24.823 16.9352 22.782 16.9352ZM18.082 20.6573C18.082 18.0518 20.1838 15.9352 22.782 15.9352C25.3802 15.9352 27.482 18.0518 27.482 20.6573C27.482 23.2627 25.3802 25.3793 22.782 25.3793C20.1838 25.3793 18.082 23.2627 18.082 20.6573Z" fill="black"/>
<path fill-rule="evenodd" clip-rule="evenodd" d="M22.282 17.9701H23.282V20.5434L24.6493 21.5984L24.0384 22.3901L22.282 21.0349V17.9701Z" fill="black"/>
</svg>
