<svg width="28" height="28" viewBox="0 0 28 28" fill="none" xmlns="http://www.w3.org/2000/svg">
<path fill-rule="evenodd" clip-rule="evenodd" d="M22.657 10.0355L8.49805 12.0089V6.97338L22.657 5V10.0355Z" stroke="black" stroke-width="1.3" stroke-linecap="round" stroke-linejoin="round"/>
<path d="M22.6582 10.0354V19.7606" stroke="black" stroke-width="1.3" stroke-linecap="round" stroke-linejoin="round"/>
<path d="M8.49805 12.0085V23.8488" stroke="black" stroke-width="1.3" stroke-linecap="round" stroke-linejoin="round"/>
<path d="M5.24923 27.1153C7.04373 27.1153 8.49846 25.6529 8.49846 23.849C8.49846 22.0451 7.04373 20.5827 5.24923 20.5827C3.45473 20.5827 2 22.0451 2 23.849C2 25.6529 3.45473 27.1153 5.24923 27.1153Z" stroke="black" stroke-width="1.3" stroke-linecap="round" stroke-linejoin="round"/>
<path d="M19.4084 23.0268C21.2029 23.0268 22.6576 21.5645 22.6576 19.7605C22.6576 17.9566 21.2029 16.4943 19.4084 16.4943C17.6139 16.4943 16.1592 17.9566 16.1592 19.7605C16.1592 21.5645 17.6139 23.0268 19.4084 23.0268Z" stroke="black" stroke-width="1.3" stroke-linecap="round" stroke-linejoin="round"/>
</svg>
