<svg width="28" height="28" viewBox="0 0 28 28" fill="none" xmlns="http://www.w3.org/2000/svg">
<path d="M20.3044 24.0217H6.64999C6.31147 24.03 5.98343 23.9033 5.73752 23.6693C5.4916 23.4353 5.34779 23.1129 5.33749 22.7727V11.5183" stroke="black" stroke-width="1.3"/>
<path d="M22.8419 11.593V16.4352" stroke="black" stroke-width="1.3"/>
<path d="M11.5762 23.9909V16.4836H16.6425V23.9909" stroke="black" stroke-width="1.3"/>
<path d="M3.78436 8.0043C3.78436 8.0043 3.30311 11.4171 6.60623 11.9625C7.08849 12.0351 7.58096 11.9934 8.04433 11.8407C8.5077 11.688 8.92913 11.4285 9.27499 11.0829C9.58572 11.4146 9.96204 11.6773 10.3798 11.8542C10.7975 12.0311 11.2474 12.1181 11.7006 12.1099C12.1538 12.1016 12.6003 11.9981 13.0113 11.8061C13.4224 11.6141 13.7889 11.3378 14.0875 10.9949C14.6455 11.6343 15.4311 12.0276 16.275 12.09C17.2032 12.0148 18.0938 11.6881 18.8519 11.1445C19.1138 11.4306 19.4297 11.6616 19.7812 11.8239C20.1327 11.9862 20.5128 12.0767 20.8994 12.09C21.4081 12.0917 21.911 11.9819 22.3732 11.7682C22.8354 11.5546 23.2457 11.2422 23.5756 10.8528C23.9054 10.4635 24.1468 10.0066 24.2831 9.51385C24.4193 9.02114 24.447 8.50449 24.3644 7.9999L22.3081 3.55356C22.2775 3.46856 22.2217 3.39509 22.1481 3.34315C22.0745 3.29121 21.9868 3.26333 21.8969 3.26329H6.21248C6.12257 3.26333 6.03486 3.29121 5.96127 3.34315C5.88768 3.39509 5.83181 3.46856 5.80123 3.55356L3.78436 8.0043Z" stroke="black" stroke-width="1.3"/>
<path d="M3.78436 8.0043H24.3862" stroke="black" stroke-width="1.3"/>
<path d="M9.29688 8.0043V3.26329" stroke="black" stroke-width="1.3"/>
<path d="M14.1094 8.0043V3.26329" stroke="black" stroke-width="1.3"/>
<path d="M18.9088 8.0043V3.26329" stroke="black" stroke-width="1.3"/>
<path d="M22.8419 24.8793C25.1615 24.8793 27.0419 22.989 27.0419 20.6573C27.0419 18.3255 25.1615 16.4352 22.8419 16.4352C20.5223 16.4352 18.6419 18.3255 18.6419 20.6573C18.6419 22.989 20.5223 24.8793 22.8419 24.8793Z" stroke="black" stroke-width="1.3"/>
<path d="M22.8419 17.9701V20.7892L24.4037 21.9942" stroke="black" stroke-width="1.3"/>
</svg>
