<svg width="28" height="28" viewBox="0 0 28 28" fill="none" xmlns="http://www.w3.org/2000/svg">
<path d="M9.5484 24.4116H17.3549" stroke="black" stroke-width="1.1" stroke-linecap="square"/>
<path fill-rule="evenodd" clip-rule="evenodd" d="M6 11.2826H20.9032L13.4516 17.8295L6 11.2826Z" stroke="black" stroke-linecap="square"/>
<path d="M13.4516 18.0245V24.0568" stroke="black" stroke-linecap="square"/>
<path d="M15.9355 11.2826L18.0645 7.7342" stroke="black" stroke-linecap="square"/>
<path fill-rule="evenodd" clip-rule="evenodd" d="M13.0968 4.89549L22.3226 9.86324C22.6822 9.25787 22.6822 8.66647 22.3226 8.08904C21.963 7.51161 20.9317 6.4471 19.2288 4.89549C17.0609 4.2985 15.5438 4 14.6774 4C13.811 4 13.2841 4.2985 13.0968 4.89549Z" stroke="black" stroke-linecap="square"/>
<path d="M9.5484 24.4116H17.3549" stroke="black" stroke-width="1.3" stroke-linecap="square"/>
<path fill-rule="evenodd" clip-rule="evenodd" d="M6 11.2826H20.9032L13.4516 17.8295L6 11.2826Z" stroke="black" stroke-width="1.3" stroke-linecap="square"/>
<path d="M13.4516 18.0245V24.0568" stroke="black" stroke-width="1.3" stroke-linecap="square"/>
<path d="M15.9355 11.2826L18.0645 7.7342" stroke="black" stroke-width="1.3" stroke-linecap="square"/>
<path fill-rule="evenodd" clip-rule="evenodd" d="M13.0968 4.89549L22.3226 9.86324C22.6822 9.25787 22.6822 8.66647 22.3226 8.08904C21.963 7.51161 20.9317 6.4471 19.2288 4.89549C17.0609 4.2985 15.5438 4 14.6774 4C13.811 4 13.2841 4.2985 13.0968 4.89549Z" stroke="black" stroke-width="1.3" stroke-linecap="square"/>
</svg>
