<svg width="28" height="28" viewBox="0 0 28 28" fill="none" xmlns="http://www.w3.org/2000/svg">
<path d="M17.8499 26.1207V26.7707H18.4999H19.7757H20.4257V26.1207V3.04589V2.4986L19.8864 2.40539C19.7087 2.37468 19.5073 2.35 19.2953 2.35C17.4106 2.35 15.888 3.88456 15.888 5.77175V15.1185C15.888 15.8393 16.2503 16.5951 16.6635 17.1883C16.9962 17.6659 17.4175 18.1177 17.8499 18.4329V26.1207Z" stroke="black" stroke-width="1.3"/>
<path d="M11.9038 2.39595H11.2043H11.1927H10.5543H10.5427H9.84393V2.39525H9.19393H8.46563H7.86943L7.81805 2.98923L7.37517 8.10949C7.35866 8.28129 7.35 8.45635 7.35 8.63323C7.35 10.2875 8.12409 11.7623 9.3242 12.7125V26.1208V26.7708H9.9742H11.7862H12.4364L12.4362 26.1205L12.4307 12.6882C13.6163 11.7388 14.3795 10.275 14.3795 8.63323C14.3795 8.48226 14.3731 8.33045 14.3603 8.18211C14.3602 8.18168 14.3602 8.18126 14.3602 8.18084L13.9292 2.99145L13.8796 2.39525H13.2814H12.5538H11.9038V2.39595Z" stroke="black" stroke-width="1.3"/>
</svg>
