<svg width="62" height="62" viewBox="0 0 62 62" fill="none" xmlns="http://www.w3.org/2000/svg">
<path fill-rule="evenodd" clip-rule="evenodd" d="M7.75 36.8125C8.82004 36.8125 9.6875 37.68 9.6875 38.75C9.6875 42.4581 9.69161 45.0443 9.95397 46.9957C10.2088 48.8914 10.675 49.895 11.3899 50.6101C12.1049 51.3251 13.1087 51.7912 15.0043 52.0462C16.9556 52.3084 19.5419 52.3125 23.25 52.3125H38.75C42.4581 52.3125 45.0443 52.3084 46.9957 52.0462C48.8914 51.7912 49.895 51.3251 50.6101 50.6101C51.3251 49.895 51.7912 48.8914 52.0462 46.9957C52.3084 45.0443 52.3125 42.4581 52.3125 38.75C52.3125 37.68 53.18 36.8125 54.25 36.8125C55.32 36.8125 56.1875 37.68 56.1875 38.75V38.8918C56.1875 42.4248 56.1875 45.2724 55.8865 47.5121C55.574 49.8374 54.9051 51.7951 53.3502 53.35C51.7951 54.9051 49.8374 55.574 47.5121 55.8865C45.2724 56.1875 42.4248 56.1875 38.8918 56.1875H23.1083C19.5753 56.1875 16.7277 56.1875 14.488 55.8865C12.1627 55.574 10.2049 54.9051 8.64991 53.3502C7.09495 51.7951 6.42615 49.8374 6.11351 47.5121C5.8124 45.2724 5.81245 42.4248 5.8125 38.8918C5.8125 38.8446 5.8125 38.7973 5.8125 38.75C5.8125 37.68 6.67996 36.8125 7.75 36.8125Z" fill="black"/>
<path fill-rule="evenodd" clip-rule="evenodd" d="M31 5.8125C31.5441 5.8125 32.0628 6.04118 32.4299 6.44263L42.7632 17.7447C43.4853 18.5344 43.4305 19.76 42.6408 20.482C41.8511 21.2041 40.6255 21.1492 39.9035 20.3595L32.9375 12.7405V41.3333C32.9375 42.4033 32.07 43.2708 31 43.2708C29.93 43.2708 29.0625 42.4033 29.0625 41.3333V12.7405L22.0966 20.3595C21.3746 21.1492 20.1491 21.2041 19.3593 20.482C18.5696 19.76 18.5147 18.5344 19.2368 17.7447L29.5701 6.44263C29.9372 6.04118 30.456 5.8125 31 5.8125Z" fill="black"/>
</svg>
