<svg width="15" height="15" viewBox="0 0 15 15" fill="none" xmlns="http://www.w3.org/2000/svg">
<path fill-rule="evenodd" clip-rule="evenodd" d="M7.5 5.625C6.46444 5.625 5.625 6.46444 5.625 7.5C5.625 8.53556 6.46444 9.375 7.5 9.375C8.53556 9.375 9.375 8.53556 9.375 7.5C9.375 6.46444 8.53556 5.625 7.5 5.625ZM6.875 7.5C6.875 7.15481 7.15481 6.875 7.5 6.875C7.84519 6.875 8.125 7.15481 8.125 7.5C8.125 7.84519 7.84519 8.125 7.5 8.125C7.15481 8.125 6.875 7.84519 6.875 7.5Z" fill="black"/>
<path fill-rule="evenodd" clip-rule="evenodd" d="M13.6437 7.05044C12.2137 4.46991 9.88263 3.125 7.5 3.125C5.11736 3.125 2.78623 4.46991 1.35627 7.05044C1.21648 7.30275 1.21476 7.61381 1.35018 7.86725C2.75739 10.5008 5.10175 11.875 7.5 11.875C9.89825 11.875 12.2426 10.5008 13.6498 7.86725C13.7853 7.61381 13.7835 7.30275 13.6437 7.05044ZM7.5 10.625C5.66311 10.625 3.77533 9.60775 2.55733 7.46794C3.79289 5.37259 5.67074 4.375 7.5 4.375C9.32925 4.375 11.2071 5.37259 12.4427 7.46794C11.2247 9.60775 9.33688 10.625 7.5 10.625Z" fill="black"/>
</svg>
